<?xml version="1.0" standalone="no"?>
<!DOCTYPE svg PUBLIC "-//W3C//DTD SVG 20010904//EN"
 "http://www.w3.org/TR/2001/REC-SVG-20010904/DTD/svg10.dtd">
<svg version="1.0" xmlns="http://www.w3.org/2000/svg"
 width="600.000000pt" height="600.000000pt" viewBox="0 0 600.000000 600.000000"
 preserveAspectRatio="xMidYMid meet">

<g transform="translate(0.000000,600.000000) scale(0.100000,-0.100000)"
fill="#000000" stroke="none">
<path d="M2945 5960 c-4 -6 -19 -9 -33 -8 -21 2 -28 -2 -30 -18 -2 -16 -12
-23 -35 -27 -18 -2 -33 -1 -35 4 -2 5 -10 9 -17 9 -8 0 -21 10 -29 22 -18 25
-21 17 -6 -13 10 -18 7 -19 -77 -16 -77 3 -119 1 -269 -16 -32 -4 -89 -41 -98
-62 -2 -7 -22 -15 -43 -19 -21 -3 -63 -24 -93 -46 -30 -22 -74 -50 -97 -62
-23 -12 -40 -25 -37 -30 3 -4 -1 -8 -8 -8 -8 0 -31 -16 -51 -35 -31 -29 -44
-35 -82 -35 -36 0 -45 -3 -45 -17 -1 -18 -77 -73 -101 -73 -20 0 -138 -127
-145 -155 -3 -14 -10 -25 -15 -25 -11 0 -49 -74 -49 -96 0 -9 -13 -33 -30 -54
-16 -21 -30 -43 -30 -49 0 -6 -11 -17 -25 -23 -14 -6 -25 -19 -25 -28 0 -9
-15 -21 -36 -29 -27 -10 -34 -17 -29 -29 15 -36 14 -146 -1 -200 -11 -38 -14
-70 -9 -106 9 -64 14 -145 15 -216 1 -30 6 -60 12 -67 6 -7 12 -36 15 -65 5
-55 32 -128 56 -152 7 -8 19 -40 26 -72 6 -33 21 -89 32 -125 17 -54 19 -72
10 -106 -10 -36 -15 -41 -49 -46 -74 -12 -106 -56 -138 -187 -17 -72 -17 -78
0 -175 10 -55 24 -136 31 -181 17 -105 73 -323 90 -350 7 -11 31 -26 54 -32
33 -10 46 -10 75 2 41 17 38 21 56 -84 31 -181 110 -362 203 -465 48 -53 55
-66 61 -117 7 -53 5 -61 -20 -95 -15 -21 -69 -77 -118 -125 l-91 -88 -150 -49
c-392 -131 -517 -181 -768 -306 -103 -52 -220 -104 -260 -116 -40 -11 -110
-38 -157 -59 -47 -22 -126 -48 -175 -60 -50 -11 -109 -25 -132 -31 l-43 -12 0
-668 0 -669 311 0 c245 0 309 3 303 13 -6 9 -4 9 7 -1 7 -6 38 -12 69 -12 31
0 62 6 69 12 11 11 13 11 7 0 -6 -9 25 -12 138 -12 129 0 145 2 149 18 4 16 5
16 6 -1 1 -17 26 -18 461 -17 287 1 458 5 454 11 -3 5 -10 7 -15 4 -5 -4 -10
-1 -10 4 -3 26 -4 30 -11 36 -4 4 -4 14 0 23 5 15 3 15 -10 4 -11 -9 -18 -10
-23 -2 -6 10 -5 12 18 14 6 0 12 6 12 13 0 7 5 17 11 23 8 8 11 6 11 -4 0 -8
-3 -13 -7 -11 -4 2 -7 -2 -7 -10 0 -13 3 -12 19 1 13 13 15 20 7 30 -6 8 -15
11 -20 8 -5 -3 -9 0 -9 7 0 7 -9 5 -22 -7 -14 -12 -18 -13 -10 -3 6 9 9 19 6
22 -4 4 3 4 15 2 12 -2 19 0 16 5 -3 5 -1 11 5 15 7 4 3 16 -9 33 -16 23 -17
30 -6 45 17 23 14 44 -9 60 -17 13 -17 14 0 28 10 7 15 9 11 2 -4 -6 -3 -14 2
-17 5 -4 8 2 6 11 -1 10 -8 17 -14 16 -6 -2 -11 2 -11 8 0 5 -4 8 -9 4 -5 -3
-12 -1 -16 4 -3 6 3 8 13 6 11 -2 19 3 19 11 0 9 -6 13 -16 9 -8 -3 -12 -3 -8
1 4 4 2 13 -5 21 -9 11 -8 13 2 11 15 -4 21 90 6 99 -5 4 -6 1 -2 -5 3 -6 2
-13 -3 -16 -14 -9 -7 22 9 37 10 10 11 9 5 -3 -7 -12 -6 -13 7 -3 8 7 19 9 24
5 4 -4 2 1 -5 10 -7 10 -9 23 -5 30 13 21 12 49 -1 38 -17 -14 -27 0 -13 17 8
10 8 17 -1 26 -10 9 -11 9 -8 -3 2 -8 2 -12 0 -7 -3 4 -10 4 -16 0 -7 -4 -6 1
2 10 7 9 17 15 21 12 5 -3 11 -1 15 5 3 5 2 10 -3 10 -5 0 -8 16 -7 35 1 34 1
35 -19 17 -17 -14 -18 -14 -8 -1 7 9 11 23 10 30 -2 7 2 13 9 14 6 0 15 4 20
9 4 5 3 6 -4 2 -18 -10 -26 13 -11 31 11 14 11 16 -1 9 -9 -6 -12 -5 -9 5 3 8
11 13 17 11 7 -1 10 2 7 7 -3 5 -15 7 -26 4 -15 -4 -17 -9 -10 -23 7 -13 6
-21 -4 -29 -11 -9 -13 -4 -10 29 2 23 -1 38 -6 35 -6 -3 -7 1 -4 9 3 9 10 16
14 16 5 0 8 9 7 20 -1 11 -5 20 -10 20 -5 0 -4 6 2 14 10 11 9 20 -1 38 -8 13
-13 30 -12 38 1 8 2 20 3 27 0 7 11 10 22 8 12 -3 18 -1 15 3 -4 4 -13 7 -19
7 -5 0 -12 6 -15 14 -3 9 0 11 9 7 8 -4 6 -1 -3 6 -19 16 -8 45 12 33 9 -5 11
-4 6 3 -14 23 -15 56 -3 71 10 12 9 13 -2 6 -11 -6 -13 -4 -8 8 3 9 2 19 -4
23 -17 10 -22 -3 -10 -25 8 -14 8 -22 -1 -27 -7 -4 -8 -3 -4 4 4 7 2 12 -5 12
-7 0 -9 3 -6 6 3 4 2 15 -4 25 -6 12 -6 18 0 17 5 -2 8 0 8 4 -1 4 7 14 18 23
l20 17 -20 -7 c-15 -5 -17 -3 -9 5 7 7 22 10 35 8 17 -2 23 -10 25 -33 2 -16
6 -48 9 -70 6 -44 7 -56 4 -100 0 -16 0 -32 1 -35 1 -3 4 -14 5 -25 1 -11 5
-35 9 -53 6 -23 4 -32 -6 -32 -10 0 -10 -2 1 -9 16 -10 18 -38 26 -301 11
-403 14 -470 19 -478 2 -4 8 -46 11 -92 4 -47 9 -87 11 -89 10 -10 10 9 3 89
-14 148 -20 336 -11 315 5 -11 10 -41 10 -66 1 -25 6 -66 11 -90 6 -24 11 -63
11 -86 0 -24 5 -43 10 -43 6 0 10 -9 10 -20 0 -31 17 -24 18 7 3 146 10 272
17 283 6 9 4 12 -6 8 -12 -5 -14 2 -11 28 3 20 -2 41 -9 51 -12 14 -12 16 0 9
10 -7 12 -3 6 15 -4 13 -12 26 -16 30 -8 5 -22 62 -34 133 -7 44 -16 66 -26
66 -6 0 -7 5 -3 12 4 7 9 26 9 42 1 16 7 32 13 34 7 2 12 17 12 33 0 16 7 46
15 66 17 41 12 87 -12 114 -8 10 -15 33 -16 52 -1 24 -6 33 -16 29 -10 -4 -11
1 -6 18 5 15 3 20 -3 16 -17 -10 -25 13 -11 30 11 13 10 15 -6 12 -16 -2 -20
4 -22 35 -2 20 1 37 7 37 5 0 10 -4 10 -10 0 -5 5 -10 10 -10 6 0 10 7 10 15
0 8 -6 15 -12 15 -10 0 -10 2 -1 8 12 8 16 24 14 60 -1 30 -17 28 -25 -3 -4
-14 -11 -25 -16 -25 -13 0 -13 6 5 64 22 72 19 121 -10 170 -34 57 -57 256
-50 422 3 65 5 140 5 166 0 64 16 61 24 -4 11 -87 50 -153 150 -253 50 -50
123 -114 161 -143 39 -28 91 -67 117 -86 25 -19 77 -51 115 -71 37 -20 72 -41
77 -46 6 -5 15 -9 20 -9 6 1 1 9 -11 19 -12 10 -19 22 -15 26 4 5 0 6 -9 3
-19 -7 -41 25 -33 47 5 12 10 13 20 4 7 -6 18 -8 24 -4 5 3 10 1 10 -4 0 -6 5
-11 11 -11 5 0 7 4 4 10 -3 5 6 12 20 16 24 6 25 8 10 23 -22 25 -19 43 8 40
26 -4 50 9 42 22 -4 5 1 9 9 9 10 0 13 6 10 15 -4 8 -12 15 -19 15 -8 0 -16 4
-19 9 -4 5 2 7 12 4 14 -3 18 1 17 15 -1 20 -27 52 -42 52 -5 0 -7 16 -5 36 5
37 46 92 56 75 7 -10 46 -3 46 9 0 4 -16 15 -36 25 -24 11 -34 21 -30 32 3 8
6 19 6 24 0 4 8 6 18 2 9 -3 3 8 -15 25 -37 35 -42 48 -14 32 14 -7 21 -6 24
3 4 9 8 9 15 -2 5 -7 15 -10 21 -7 6 4 11 1 11 -6 0 -22 52 -38 103 -33 34 4
47 2 47 -7 0 -9 3 -9 12 0 17 17 28 15 28 -5 0 -15 2 -16 10 -3 9 13 11 13 20
0 8 -12 10 -12 10 5 0 11 5 27 10 35 8 11 9 9 5 -11 -6 -22 -3 -25 17 -23 13
1 25 3 28 4 3 1 13 2 22 1 9 -1 18 6 21 16 4 14 5 13 6 -4 0 -13 5 -23 9 -23
10 0 8 46 -3 75 -7 16 -6 18 6 7 22 -20 49 -15 50 11 1 17 3 16 8 -7 6 -28 7
-29 24 -12 9 10 17 27 18 39 l0 22 9 -22 c10 -24 30 -32 30 -12 0 6 7 9 15 5
14 -5 13 -2 0 24 -18 34 -30 40 -22 10 3 -11 1 -20 -4 -20 -5 0 -9 8 -9 18 0
12 -8 17 -25 17 -14 0 -25 -3 -25 -7 0 -14 -27 -8 -41 8 -7 8 -22 14 -34 12
-12 -3 -27 1 -33 9 -18 19 -56 17 -48 -2 3 -8 1 -15 -5 -15 -5 0 -13 8 -16 17
-4 9 -15 25 -26 36 -19 19 -20 19 -15 1 3 -10 9 -27 13 -36 5 -13 3 -18 -8
-18 -9 0 -17 14 -21 35 -4 19 -11 35 -16 35 -6 0 -10 9 -10 19 0 10 -7 21 -15
25 -8 3 -15 17 -15 31 0 20 -4 26 -20 23 -10 -2 -26 6 -34 17 -14 20 -15 19
-14 -5 2 -34 18 -56 29 -38 4 7 11 9 16 5 4 -5 1 -12 -7 -17 -20 -13 -53 -13
-45 0 3 5 2 10 -3 10 -5 0 -12 -14 -16 -31 -3 -17 -10 -28 -15 -25 -15 10 -22
-29 -11 -59 11 -30 -2 -50 -27 -40 -8 2 -13 -4 -13 -15 0 -13 -5 -18 -15 -14
-8 4 -15 12 -15 20 0 8 -4 14 -10 14 -5 0 -10 -4 -10 -10 0 -5 -7 -7 -16 -3
-9 3 -20 0 -25 -8 -7 -11 -9 -9 -9 7 0 29 22 46 54 40 22 -4 24 -2 14 13 -16
26 -98 28 -98 3 -1 -15 -3 -15 -17 3 -15 20 -15 20 -10 -2 6 -26 -8 -41 -17
-17 -3 8 -10 13 -15 9 -5 -3 -13 5 -16 17 -4 13 -15 32 -25 43 -17 19 -24 49
-21 85 1 13 3 13 14 -1 11 -14 14 -14 31 3 11 10 14 18 8 18 -7 0 -12 5 -12
10 0 7 6 7 19 1 15 -8 20 -7 25 6 4 9 4 18 1 21 -3 3 -5 0 -5 -6 0 -7 -7 -12
-15 -12 -8 0 -15 5 -15 10 0 6 5 10 10 10 6 0 10 14 10 30 0 17 5 30 11 30 12
0 8 35 -7 74 -6 16 -4 18 15 13 15 -3 35 3 58 19 20 13 41 24 47 24 6 0 4 -5
-4 -10 -8 -5 -11 -10 -5 -10 5 0 18 12 30 26 18 23 23 24 49 14 19 -7 33 -7
39 -1 5 5 16 7 23 4 8 -3 20 0 27 6 10 8 24 5 52 -9 46 -24 61 -25 68 -6 4 10
-1 13 -16 10 -17 -3 -15 -1 5 8 15 6 27 19 26 27 -3 37 2 50 17 45 8 -4 15 -2
15 3 0 17 -95 33 -235 38 -163 6 -168 7 -189 24 -9 7 -25 11 -36 8 -11 -3 -20
-1 -20 3 0 5 -3 16 -7 26 -5 13 -3 16 10 11 9 -3 19 -2 23 4 3 5 14 7 25 4 17
-6 19 -1 19 37 l0 44 58 11 c31 6 91 10 132 8 86 -3 160 4 160 15 0 4 -38 7
-84 8 -103 0 -146 9 -146 29 0 12 -2 12 -16 -1 -8 -9 -20 -16 -25 -16 -20 0
-50 22 -60 43 l-10 22 5 -22 c3 -17 -1 -23 -15 -23 -22 0 -22 0 -9 35 6 16 14
23 21 19 9 -5 10 1 5 20 -4 18 -3 25 4 21 6 -4 10 5 10 22 0 18 8 33 21 41 23
15 90 19 110 7 27 -17 95 -23 137 -13 38 9 43 14 40 37 -1 14 -14 39 -28 55
-20 23 -21 28 -7 23 14 -5 18 -3 15 11 -2 12 -13 17 -38 17 -19 0 -41 7 -47
15 -11 12 -14 13 -22 1 -16 -24 -51 -4 -51 30 0 27 3 30 23 24 l22 -7 -22 24
c-76 80 -93 104 -103 149 -7 26 -9 63 -5 81 9 39 41 102 61 119 8 6 14 17 14
24 0 8 4 15 9 17 8 3 16 96 11 123 -2 6 -1 52 0 103 2 111 21 159 74 187 28
15 40 17 54 9 33 -20 80 -115 126 -252 112 -336 126 -372 126 -325 0 35 12 34
57 -8 82 -75 181 -103 373 -103 112 -1 147 3 206 21 73 23 139 61 137 78 -2
16 18 35 30 28 5 -3 7 -1 4 4 -4 6 2 31 14 54 11 24 18 33 15 20 -3 -14 -1
-20 4 -15 8 8 69 209 84 282 4 18 11 30 16 27 5 -3 10 0 12 7 3 7 19 -2 42
-23 36 -33 39 -40 46 -110 12 -122 12 -394 -1 -461 -6 -35 -17 -81 -25 -103
-8 -22 -15 -57 -16 -77 -2 -21 -6 -38 -9 -38 -4 0 -9 -18 -11 -40 -2 -22 0
-40 4 -40 5 0 8 11 8 25 0 46 44 102 66 84 6 -5 14 -22 17 -37 5 -24 67 -76
67 -56 0 5 5 3 11 -3 13 -13 42 -6 33 8 -3 5 0 9 5 9 17 0 13 27 -5 34 -14 5
-13 9 3 33 19 28 33 67 54 153 6 25 22 80 36 123 21 64 25 91 21 151 -7 101
-48 170 -92 153 -16 -6 -16 -10 5 -43 19 -31 22 -50 22 -117 -1 -44 -5 -83
-10 -86 -5 -3 -9 -42 -9 -86 0 -62 -5 -89 -22 -122 -12 -23 -22 -49 -22 -57 0
-21 -46 -73 -64 -73 -19 0 -22 47 -5 64 14 14 3 123 -12 123 -5 0 -3 10 5 23
16 27 29 100 15 92 -5 -4 -9 1 -9 9 0 9 5 16 11 16 8 0 10 25 7 85 -3 46 -2
85 3 87 5 2 4 19 -3 39 -9 32 -8 40 10 59 22 23 75 30 122 15 24 -7 24 -7 7
11 -14 15 -33 19 -87 19 -38 1 -72 4 -75 7 -4 3 6 30 21 60 15 29 35 82 45
118 10 36 25 90 34 120 9 30 23 100 30 155 17 125 24 157 39 170 6 6 12 37 13
70 1 33 4 117 8 186 5 122 5 127 -20 163 -14 20 -25 49 -25 64 0 19 -13 41
-39 67 -60 61 -77 75 -88 75 -25 0 -52 47 -56 98 -3 44 -9 57 -40 87 -21 20
-37 42 -37 49 0 8 -10 16 -22 19 -13 4 -35 25 -50 48 -27 42 -117 109 -145
109 -24 0 -74 34 -116 79 -21 23 -43 41 -48 41 -5 0 -25 25 -44 55 -27 42 -41
55 -60 55 -13 0 -37 12 -52 26 -43 41 -85 56 -122 43 -38 -13 -65 3 -55 33 6
19 -13 51 -25 43 -4 -2 -43 5 -87 16 -77 19 -141 18 -128 -3 4 -6 -1 -6 -14 1
-11 6 -28 8 -38 4 -12 -4 -15 -3 -10 5 5 8 0 12 -13 12 -11 0 -33 11 -49 25
-32 27 -47 31 -57 15z m343 -89 c10 -6 10 -10 -2 -20 -10 -8 -16 -9 -21 -1 -3
5 -15 10 -26 10 -11 0 -17 5 -14 10 7 12 45 13 63 1z m332 -192 c0 -5 -4 -9
-10 -9 -5 0 -10 7 -10 16 0 8 5 12 10 9 6 -3 10 -10 10 -16z m-676 -4 c-10 -8
-23 -15 -28 -15 -6 0 -1 7 10 15 10 8 23 15 28 15 6 0 1 -7 -10 -15z m246 -95
c0 -5 -6 -10 -14 -10 -7 0 -29 -2 -47 -5 l-34 -6 35 14 c44 18 60 20 60 7z
m-113 -6 c-3 -3 -12 -4 -19 -1 -8 3 -5 6 6 6 11 1 17 -2 13 -5z m-57 -44 c0
-5 -4 -10 -10 -10 -5 0 -10 5 -10 10 0 6 5 10 10 10 6 0 10 -4 10 -10z m200
-10 c0 -5 -9 -9 -20 -7 -31 5 -36 17 -7 17 15 0 27 -4 27 -10z m35 0 c3 -5 1
-10 -4 -10 -6 0 -11 5 -11 10 0 6 2 10 4 10 3 0 8 -4 11 -10z m-246 -66 c62
-14 120 -29 130 -34 9 -5 36 -18 61 -29 25 -10 63 -27 85 -36 22 -10 60 -24
85 -31 l45 -14 -25 21 -25 21 35 -6 c19 -4 44 -16 57 -28 13 -12 23 -18 23
-13 0 4 8 1 18 -7 9 -9 31 -20 47 -25 17 -5 30 -15 30 -21 0 -5 4 -14 9 -19 5
-5 6 -3 2 5 -4 7 -2 12 6 12 18 -1 96 -38 80 -39 -7 -1 -26 6 -42 14 -17 9
-30 12 -30 7 0 -4 36 -23 80 -42 44 -19 80 -39 80 -44 0 -6 18 -18 39 -27 38
-16 71 -62 71 -101 0 -10 6 -18 14 -18 27 0 124 -231 142 -335 1 -11 10 -63
19 -115 9 -52 19 -119 22 -147 7 -63 21 -61 -172 -32 -133 20 -142 23 -175 54
-35 33 -88 61 -98 50 -3 -3 0 -5 6 -5 7 0 12 -7 12 -15 0 -8 5 -15 10 -15 6 0
10 -6 10 -12 -1 -8 -8 -5 -18 7 -9 11 -30 20 -47 21 -16 1 -45 7 -64 15 -27
11 -35 11 -38 2 -3 -8 -14 -11 -27 -7 -14 3 -27 -1 -35 -10 -14 -17 -41 -22
-41 -8 0 5 -7 9 -15 9 -8 0 -15 -4 -15 -9 0 -5 -21 -7 -47 -5 -27 2 -63 0 -80
-4 -18 -4 -33 -4 -33 0 0 9 -94 6 -109 -4 -6 -3 -24 -9 -38 -11 -15 -3 -36
-14 -46 -25 -10 -10 -24 -20 -32 -20 -31 -3 -35 -4 -54 -21 -25 -21 -111 -35
-111 -18 0 6 -4 9 -9 5 -5 -3 -12 -1 -15 4 -3 5 -27 12 -53 16 -27 4 -52 10
-58 15 -5 4 -26 11 -45 15 -19 4 -42 18 -52 30 -19 25 -86 50 -153 59 -100 13
-132 20 -155 35 -14 9 -34 21 -45 28 -11 6 -19 16 -18 22 2 6 -6 11 -16 11
-11 0 -23 5 -26 10 -4 6 -15 8 -26 5 -12 -4 -21 -1 -25 8 -3 8 -14 17 -24 20
-20 5 -46 79 -35 98 4 5 2 16 -5 24 -12 15 2 55 20 55 6 0 10 7 10 15 0 8 9
19 20 25 11 6 20 17 20 25 0 8 7 15 15 15 9 0 15 -9 15 -22 1 -21 2 -21 11 -5
15 26 4 47 -20 40 -28 -7 -39 22 -17 46 9 10 16 27 16 39 0 42 18 71 40 65 15
-4 19 -2 15 9 -3 8 1 21 10 28 8 7 15 23 15 37 0 14 4 22 10 18 10 -6 37 51
32 67 -1 4 5 5 13 2 10 -4 15 0 15 15 0 12 5 21 10 21 6 0 20 11 32 25 12 14
26 25 31 25 5 0 18 11 29 25 11 14 26 25 34 25 8 0 14 5 14 10 0 6 7 10 15 10
8 0 15 6 15 13 0 14 60 57 81 57 8 0 20 5 27 12 9 9 12 9 12 0 0 -10 5 -10 23
0 19 11 171 33 252 37 17 0 81 -11 144 -25z m38 10 c-3 -3 -12 -4 -19 -1 -8 3
-5 6 6 6 11 1 17 -2 13 -5z m331 -31 c-15 -2 -42 -2 -60 0 -18 2 -6 4 27 4 33
0 48 -2 33 -4z m-1410 -1040 c-10 -2 -26 -2 -35 0 -10 3 -2 5 17 5 19 0 27 -2
18 -5z m-71 -9 c-3 -3 -12 -4 -19 -1 -8 3 -5 6 6 6 11 1 17 -2 13 -5z m-75
-21 c-49 -17 -111 -76 -113 -107 -1 -12 -3 -34 -5 -51 -8 -60 -13 -149 -8
-132 3 9 10 17 15 17 5 0 9 5 9 11 0 29 33 119 43 119 7 0 23 6 37 13 14 7 50
14 80 15 33 2 75 12 105 27 55 26 97 37 135 36 117 -2 265 -25 285 -43 7 -6 7
-9 0 -7 -18 5 -85 -22 -80 -32 4 -5 -2 -9 -12 -9 -10 -1 -58 -7 -108 -16 -49
-8 -102 -17 -117 -19 -46 -8 -156 -65 -178 -92 -30 -38 -27 -127 5 -195 14
-29 34 -58 44 -63 10 -6 32 -18 49 -27 27 -16 35 -16 105 -2 70 14 77 14 101
-1 30 -20 32 -28 11 -45 -29 -24 -16 -33 35 -26 28 4 57 9 65 12 22 9 30 -24
11 -45 -10 -11 -16 -27 -14 -37 8 -47 -234 -79 -370 -50 -40 8 -94 25 -118 38
-40 20 -59 38 -116 107 -43 52 -85 461 -47 461 5 0 6 13 3 28 -6 31 2 43 61
88 35 26 76 42 110 42 11 0 1 -6 -23 -15z m1752 -12 c27 -1 47 -4 43 -7 -3 -4
-50 -6 -105 -5 -54 1 -110 -3 -126 -8 -15 -6 -25 -7 -22 -2 7 10 -69 4 -138
-11 -33 -7 -44 -13 -35 -19 22 -14 89 -11 90 4 0 10 2 10 6 0 6 -16 99 -18
108 -3 3 6 10 10 16 10 5 0 9 -4 9 -10 0 -5 -7 -10 -15 -10 -8 0 -15 -5 -15
-11 0 -7 10 -9 28 -4 54 15 183 13 219 -2 20 -8 42 -12 51 -8 29 11 118 16
102 5 -12 -8 -11 -10 8 -10 15 0 21 -4 16 -11 -4 -7 -1 -10 7 -7 8 3 15 14 17
26 2 12 8 22 13 22 12 0 11 -7 -1 -31 -7 -12 -7 -19 -1 -19 5 0 13 -9 16 -20
3 -11 10 -20 15 -20 5 0 7 7 3 15 -5 14 -1 14 23 3 36 -15 52 -28 36 -28 -7 0
-12 -4 -12 -10 0 -5 6 -10 14 -10 26 0 35 -80 11 -100 -19 -15 -19 -30 -1 -30
10 0 11 -11 5 -52 -24 -152 -71 -294 -117 -357 -14 -19 -49 -45 -81 -60 -53
-25 -64 -26 -216 -26 -152 0 -164 1 -240 29 -67 25 -90 40 -141 91 -50 50 -67
76 -92 140 -36 94 -61 208 -69 317 -5 69 -4 78 10 72 12 -4 14 -1 10 15 -6 22
20 65 40 67 6 0 29 8 50 17 86 39 253 68 362 62 28 -2 72 -4 99 -4z m131 -20
c17 -3 26 -9 20 -12 -5 -3 -30 0 -55 7 -47 13 -19 17 35 5z m-747 -24 c5 -26
-27 -128 -38 -122 -15 9 -12 42 5 49 8 3 15 13 15 23 0 14 -2 15 -9 4 -6 -9
-10 -4 -13 18 -7 45 32 72 40 28z m1172 -31 c0 -51 -16 -86 -39 -86 -11 0 0
104 12 111 5 4 6 12 3 18 -4 6 0 11 8 11 13 0 16 -12 16 -54z m-2566 15 c20
-22 11 -105 -11 -97 -8 4 -21 6 -29 6 -10 0 -14 15 -14 59 0 54 2 59 19 54 11
-3 26 -12 35 -22z m2231 19 l20 -9 -20 0 c-11 0 -29 4 -40 9 l-20 9 20 0 c11
0 29 -4 40 -9z m-891 -32 c-5 -13 -8 -33 -7 -45 0 -13 -3 -23 -8 -23 -5 0 -9
20 -9 45 0 34 4 45 16 45 12 0 13 -5 8 -22z m1293 -25 c20 -47 31 -267 15
-277 -15 -9 -26 36 -18 69 6 22 3 26 -23 31 -24 5 -31 14 -41 48 -6 22 -13 46
-16 52 -3 7 9 17 26 22 27 10 30 15 30 51 0 23 2 41 6 41 3 0 12 -17 21 -37z
m-1997 -83 c0 -5 -7 -10 -16 -10 -8 0 -12 5 -9 10 3 6 10 10 16 10 5 0 9 -4 9
-10z m40 0 c0 -5 -2 -10 -4 -10 -3 0 -8 5 -11 10 -3 6 -1 10 4 10 6 0 11 -4
11 -10z m104 -30 c16 -6 26 -13 24 -16 -5 -4 -84 22 -97 32 -1 1 0 8 4 14 5 8
12 7 24 -4 9 -8 29 -20 45 -26z m1747 25 c-1 -5 -6 -10 -12 -10 -14 0 -30 -43
-60 -166 -13 -52 -25 -87 -27 -78 -3 19 42 205 60 244 11 24 40 32 39 10z
m-1741 -87 c17 -18 20 -30 15 -58 -8 -41 -4 -35 -40 -54 -39 -20 -48 -11 -28
27 9 18 15 49 15 69 -2 43 8 48 38 16z m-262 -43 c3 -10 15 -36 28 -57 30 -48
30 -52 -3 -44 -64 15 -123 64 -80 67 9 0 9 2 0 6 -10 3 -8 11 5 29 20 28 45
27 50 -1z m172 13 c0 -7 -5 -20 -10 -28 -8 -12 -10 -9 -10 13 0 15 5 27 10 27
6 0 10 -6 10 -12z m85 -128 c3 -5 -1 -10 -9 -10 -9 0 -16 5 -16 10 0 6 4 10 9
10 6 0 13 -4 16 -10z m-52 -131 c-6 -6 -19 -9 -29 -7 -17 3 -17 4 1 21 12 13
21 15 28 8 8 -8 8 -14 0 -22z m-403 -219 c13 -8 13 -10 -2 -10 -9 0 -20 5 -23
10 -8 13 5 13 25 0z m113 -17 c-7 -2 -19 -2 -25 0 -7 3 -2 5 12 5 14 0 19 -2
13 -5z m247 -3 c-8 -5 -10 -10 -4 -10 6 0 14 -14 18 -30 3 -17 16 -41 29 -53
26 -25 37 -47 43 -94 2 -20 -1 -33 -7 -33 -7 0 -10 -12 -7 -29 2 -17 1 -28 -4
-25 -4 3 -8 0 -8 -6 0 -7 -7 -10 -15 -6 -9 3 -15 0 -15 -9 0 -8 -5 -15 -11
-15 -7 0 -22 -11 -35 -25 -13 -14 -25 -25 -27 -25 -2 0 -21 -16 -41 -35 -21
-19 -42 -35 -47 -35 -5 0 -9 -6 -9 -13 0 -21 -77 -90 -91 -82 -9 6 -11 3 -6
-8 3 -10 2 -17 -3 -17 -5 0 -9 -10 -8 -22 2 -40 -2 -48 -18 -48 -10 0 -14 6
-10 15 3 9 0 15 -8 15 -8 0 -16 6 -19 13 -5 13 -83 43 -101 38 -5 -1 -6 7 -4
17 3 11 1 27 -4 36 -7 12 -5 18 7 22 9 4 14 13 11 20 -3 9 2 14 14 14 17 0 18
3 9 30 -6 17 -17 30 -25 30 -8 0 -14 5 -14 10 0 6 9 10 20 10 22 0 28 37 10
70 -8 15 -6 17 9 13 16 -4 19 -1 14 16 -4 15 -1 21 11 21 12 0 16 9 16 35 0
20 7 52 15 72 9 20 13 44 10 54 -3 9 -1 20 4 23 6 4 8 13 5 20 -3 9 6 13 33
14 21 1 52 6 68 11 45 12 214 14 195 1z m267 -61 c25 -9 26 -12 10 -20 -14 -8
-15 -14 -6 -31 10 -18 8 -24 -7 -35 -26 -19 -46 -13 -63 19 -12 21 -13 31 -3
52 13 28 26 31 69 15z m243 -249 c0 -5 -7 -10 -16 -10 -8 0 -12 5 -9 10 3 6
10 10 16 10 5 0 9 -4 9 -10z m-24 -59 c-8 -13 -36 -15 -36 -3 0 4 5 13 12 20
14 14 34 0 24 -17z m-234 -186 c10 -13 10 -35 1 -35 -17 1 -45 29 -39 39 8 12
28 10 38 -4z m-287 -75 c-3 -5 -10 -10 -16 -10 -5 0 -9 5 -9 10 0 6 7 10 16
10 8 0 12 -4 9 -10z m-84 -15 c22 -5 29 -11 24 -22 -4 -13 -3 -14 10 -3 8 7
21 10 30 6 12 -4 11 -11 -7 -43 -12 -21 -25 -40 -29 -43 -4 -3 -8 -14 -10 -25
-3 -12 -16 -24 -37 -30 -18 -5 -32 -16 -32 -25 0 -13 -2 -13 -10 0 -8 12 -10
12 -16 -3 -3 -9 -15 -17 -26 -17 -14 0 -18 5 -14 16 3 8 2 12 -4 9 -5 -3 -9
17 -9 47 0 29 0 60 -1 68 -2 17 6 56 14 69 6 9 67 7 117 -4z m329 -265 c0 -5
-2 -10 -4 -10 -3 0 -8 5 -11 10 -3 6 -1 10 4 10 6 0 11 -4 11 -10z m49 -134
c-1 -16 -2 -17 -6 -3 -2 9 -9 17 -14 17 -5 0 -9 4 -9 10 0 5 7 7 15 4 8 -4 14
-16 14 -28z m361 -226 c0 -5 -5 -10 -11 -10 -5 0 -7 5 -4 10 3 6 8 10 11 10 2
0 4 -4 4 -10z m-82 -203 c6 -5 12 -14 12 -20 0 -7 -4 -7 -12 1 -7 7 -20 12
-30 12 -10 0 -18 4 -18 8 0 12 32 11 48 -1z m-151 -79 c-3 -7 -5 -2 -5 12 0
14 2 19 5 13 2 -7 2 -19 0 -25z m3 -208 c0 -5 -2 -10 -4 -10 -3 0 -8 5 -11 10
-3 6 -1 10 4 10 6 0 11 -4 11 -10z m-766 -381 c-2 -4 4 -10 15 -14 14 -4 18
-13 16 -27 -7 -35 -21 -41 -19 -8 1 16 -1 30 -5 30 -4 0 -15 6 -25 13 -16 12
-16 13 3 13 11 0 18 -3 15 -7z m-39 -18 c3 -5 2 -12 -3 -15 -5 -3 -9 1 -9 9 0
17 3 19 12 6z m-628 -197 c-3 -3 -12 -4 -19 -1 -8 3 -5 6 6 6 11 1 17 -2 13
-5z m680 -17 c0 -8 -6 -14 -13 -14 -7 0 -10 6 -7 14 3 7 8 13 12 13 4 0 8 -6
8 -13z m-607 -11 c0 -2 -7 -9 -15 -16 -13 -11 -14 -10 -9 4 5 14 24 23 24 12z
m75 -35 c3 -5 2 -12 -3 -15 -5 -3 -9 1 -9 9 0 17 3 19 12 6z m-35 -15 c0 -2
-8 -10 -17 -17 -16 -13 -17 -12 -4 4 13 16 21 21 21 13z m-120 -10 c0 -2 -7
-7 -16 -10 -8 -3 -12 -2 -9 4 6 10 25 14 25 6z m147 -28 c-17 -9 -17 -11 -2
-22 16 -11 15 -14 -10 -30 -17 -11 -24 -13 -19 -5 5 8 9 21 9 30 0 19 25 52
34 43 3 -3 -2 -10 -12 -16z m-394 -13 c-3 -9 -8 -14 -10 -11 -3 3 -2 9 2 15 9
16 15 13 8 -4z m332 -3 c-3 -3 -11 0 -18 7 -9 10 -8 11 6 5 10 -3 15 -9 12
-12z m-39 -11 c0 -11 -5 -17 -13 -14 -10 4 -11 9 -2 19 15 18 15 18 15 -5z
m109 -59 c-3 -3 -11 0 -18 7 -9 10 -8 11 6 5 10 -3 15 -9 12 -12z m79 0 c2 -4
-5 -9 -17 -9 -17 -2 -19 0 -7 7 18 12 18 12 24 2z m-394 -45 c-19 -18 -37 -31
-40 -29 -5 4 60 62 69 62 3 0 -10 -15 -29 -33z m360 9 c0 -3 -4 -8 -10 -11 -5
-3 -10 -1 -10 4 0 6 5 11 10 11 6 0 10 -2 10 -4z m-100 -21 c0 -8 -2 -15 -4
-15 -2 0 -6 7 -10 15 -3 8 -1 15 4 15 6 0 10 -7 10 -15z m140 -10 c-10 -12
-10 -15 0 -15 9 0 8 -5 -3 -18 -10 -10 -15 -21 -12 -24 3 -2 -1 -5 -9 -5 -8 0
-12 6 -9 14 3 7 9 13 14 13 5 0 9 5 9 11 0 5 -6 7 -12 3 -7 -4 -4 2 6 14 21
25 36 31 16 7z m-473 -72 c-3 -10 -5 -4 -5 12 0 17 2 24 5 18 2 -7 2 -21 0
-30z m949 -128 c-1 -8 -5 -17 -8 -21 -5 -4 -4 16 1 34 3 9 9 -1 7 -13z m-941
-64 c3 -5 2 -12 -3 -15 -5 -3 -9 1 -9 9 0 17 3 19 12 6z m958 -56 c4 3 4 2 1
-2 -3 -5 -11 -8 -17 -8 -7 -1 -11 -7 -9 -14 1 -7 -2 -10 -8 -6 -6 3 -8 11 -4
16 3 5 0 17 -8 26 -12 15 -10 15 13 0 14 -10 29 -15 32 -12z m-1233 -49 c0 -2
-8 -10 -17 -17 -16 -13 -17 -12 -4 4 13 16 21 21 21 13z m295 -75 c3 -5 2 -12
-3 -15 -5 -3 -9 1 -9 9 0 17 3 19 12 6z m-325 -85 c0 -2 -8 -10 -17 -17 -16
-13 -17 -12 -4 4 13 16 21 21 21 13z m347 -118 c-3 -8 -6 -5 -6 6 -1 11 2 17
5 13 3 -3 4 -12 1 -19z m923 9 c0 -2 -10 -12 -22 -23 l-23 -19 19 23 c18 21
26 27 26 19z m4 -85 c3 -5 -1 -9 -9 -9 -8 0 -12 4 -9 9 3 4 7 8 9 8 2 0 6 -4
9 -8z m-1354 -68 c0 -8 -5 -12 -10 -9 -6 4 -8 11 -5 16 9 14 15 11 15 -7z
m462 -36 c-6 -23 -18 -23 -18 0 0 10 5 19 12 19 6 0 9 -9 6 -19z m-429 -23
c-3 -9 -8 -14 -10 -11 -3 3 -2 9 2 15 9 16 15 13 8 -4z m501 -1 c3 -8 2 -12
-4 -9 -6 3 -10 10 -10 16 0 14 7 11 14 -7z m-590 -15 c-3 -5 -10 -7 -15 -3 -5
3 -7 10 -3 15 3 5 10 7 15 3 5 -3 7 -10 3 -15z m17 -12 c-10 -9 -11 -8 -5 6 3
10 9 15 12 12 3 -3 0 -11 -7 -18z m-27 -28 c-3 -5 -10 -7 -15 -3 -5 3 -7 10
-3 15 3 5 10 7 15 3 5 -3 7 -10 3 -15z"/>
<path d="M2183 4803 c-16 -6 -17 -36 -2 -31 6 2 10 7 9 12 -1 5 4 13 12 17 14
9 1 11 -19 2z"/>
<path d="M2161 4734 c0 -11 3 -14 6 -6 3 7 2 16 -1 19 -3 4 -6 -2 -5 -13z"/>
<path d="M2093 4723 c-7 -2 -13 -14 -13 -25 0 -27 30 -20 41 10 8 22 0 27 -28
15z"/>
<path d="M1702 3970 c0 -14 2 -19 5 -12 2 6 2 18 0 25 -3 6 -5 1 -5 -13z"/>
<path d="M3211 4114 c-62 -65 -72 -86 -32 -65 28 16 38 -5 14 -31 -18 -21 -18
-21 2 -13 121 48 115 47 115 26 0 -11 2 -25 5 -33 3 -7 1 -19 -4 -27 -7 -11
-17 -12 -56 -2 -33 8 -51 9 -58 2 -15 -15 -9 -19 69 -37 38 -9 78 -21 89 -26
11 -5 35 -10 52 -11 18 -1 35 -8 38 -14 6 -18 87 -16 111 2 18 13 16 14 -23
15 -50 0 -60 11 -32 36 27 24 49 67 49 94 0 11 5 20 10 20 24 0 72 -33 89 -61
19 -30 61 -59 86 -59 23 0 22 34 -2 57 -28 27 -30 43 -3 36 32 -8 23 13 -19
49 -53 45 -167 85 -276 98 -158 18 -154 19 -224 -56z m452 -30 c38 -25 44 -46
16 -52 -8 -1 -41 15 -74 37 -42 28 -76 42 -112 47 -55 7 -70 20 -30 26 34 6
157 -31 200 -58z m-171 -94 c16 0 1 -13 -17 -16 -17 -3 -18 1 -8 36 7 24 8 25
11 3 2 -13 8 -23 14 -23z"/>
<path d="M3012 4135 c0 -16 2 -22 5 -12 2 9 2 23 0 30 -3 6 -5 -1 -5 -18z"/>
<path d="M3641 3924 c-10 -13 -29 -24 -41 -24 -11 0 -19 -4 -16 -9 3 -5 15 -7
25 -4 10 3 21 0 25 -5 8 -14 52 -3 71 18 15 17 14 19 -14 33 -29 15 -32 14
-50 -9z"/>
<path d="M2880 3448 l-25 -10 25 -10 c13 -5 31 -15 40 -22 8 -8 33 -16 55 -20
22 -4 52 -9 66 -12 32 -6 46 18 23 40 -28 28 -146 50 -184 34z"/>
<path d="M2945 3300 l-30 -6 33 -33 c17 -18 32 -39 32 -46 0 -9 7 -12 18 -9 9
2 7 -1 -5 -7 -56 -29 -26 -64 56 -64 50 0 56 -2 53 -19 -3 -18 -2 -18 15 -6
10 8 15 11 11 6 -11 -13 18 -37 36 -30 9 3 16 11 16 16 0 6 6 5 15 -2 8 -6 19
-9 24 -6 5 4 13 1 17 -5 10 -16 -18 -30 -34 -17 -9 8 -16 8 -24 0 -9 -9 -8
-12 6 -12 9 0 14 -5 11 -10 -8 -13 18 -8 27 5 5 6 8 5 8 -2 0 -7 10 -13 23
-13 13 0 34 -11 47 -25 19 -20 26 -23 39 -12 12 9 13 9 7 0 -4 -8 -2 -13 4
-13 6 0 10 -10 8 -22 -2 -14 2 -22 9 -21 6 2 26 -14 43 -35 17 -20 30 -30 28
-22 -2 8 -9 21 -17 30 -13 13 -12 15 2 18 22 4 21 15 -3 37 -11 10 -20 24 -20
32 0 7 -7 13 -15 13 -9 0 -15 9 -15 25 0 14 -10 33 -21 43 -12 9 -27 23 -34
30 -8 6 -19 12 -25 12 -6 0 -8 -6 -4 -12 4 -7 -6 -1 -23 15 -16 15 -36 27 -44
27 -9 0 -22 11 -29 25 -7 14 -17 25 -22 25 -5 0 -6 -4 -3 -10 3 -5 1 -10 -4
-10 -6 0 -11 7 -11 16 0 11 -5 14 -16 10 -10 -4 -18 1 -21 13 -4 16 -11 19
-33 15 -23 -5 -28 -2 -34 20 -6 24 -8 25 -21 12 -18 -18 -19 -33 -2 -39 7 -3
6 -6 -5 -6 -21 -1 -33 17 -30 46 4 26 -5 31 -43 23z m265 -186 c0 -2 -9 0 -20
6 -11 6 -20 13 -20 16 0 2 9 0 20 -6 11 -6 20 -13 20 -16z m131 -31 c13 -16
12 -17 -3 -4 -17 13 -22 21 -14 21 2 0 10 -8 17 -17z m60 -110 c13 -16 12 -17
-3 -4 -14 11 -18 11 -18 1 0 -8 -3 -11 -6 -7 -5 5 3 27 10 27 2 0 10 -8 17
-17z"/>
<path d="M2601 3074 c-1 -12 5 -21 14 -21 8 0 15 7 15 14 0 8 -4 12 -9 9 -5
-4 -12 0 -14 6 -3 7 -6 4 -6 -8z"/>
<path d="M4190 3060 c0 -5 7 -10 15 -10 8 0 15 5 15 10 0 6 -7 10 -15 10 -8 0
-15 -4 -15 -10z"/>
<path d="M3390 3052 c0 -5 12 -19 27 -33 l26 -24 -23 33 c-25 33 -30 38 -30
24z"/>
<path d="M3252 3019 c2 -7 10 -15 17 -17 8 -3 12 1 9 9 -2 7 -10 15 -17 17 -8
3 -12 -1 -9 -9z"/>
<path d="M4036 2972 c-3 -6 -1 -14 5 -17 15 -10 25 3 12 16 -7 7 -13 7 -17 1z"/>
<path d="M2940 2960 c-8 -5 -12 -12 -9 -15 4 -3 12 1 19 10 14 17 11 19 -10 5z"/>
<path d="M3320 2960 c0 -5 5 -10 11 -10 5 0 7 5 4 10 -3 6 -8 10 -11 10 -2 0
-4 -4 -4 -10z"/>
<path d="M2980 2950 c0 -6 7 -10 15 -10 8 0 15 2 15 4 0 2 -7 6 -15 10 -8 3
-15 1 -15 -4z"/>
<path d="M3133 2946 c4 -11 -3 -16 -26 -18 -31 -4 -31 -4 16 -17 26 -7 47 -18
47 -23 0 -5 12 -8 28 -7 53 4 71 -1 103 -30 17 -16 40 -32 51 -34 17 -5 18 -2
12 26 -8 42 -13 49 -26 41 -6 -4 -8 -3 -5 3 10 16 -33 30 -90 29 -34 -1 -55 4
-58 12 -2 6 -12 12 -20 12 -9 0 -13 5 -10 10 3 6 -1 10 -10 10 -11 0 -15 -5
-12 -14z"/>
<path d="M3340 2919 c0 -5 4 -9 8 -9 5 0 13 -10 19 -22 l10 -22 5 22 c4 14 2
20 -5 15 -6 -4 -8 -1 -5 8 4 10 -1 15 -13 16 -10 1 -19 -2 -19 -8z"/>
<path d="M2488 2333 c7 -3 16 -2 19 1 4 3 -2 6 -13 5 -11 0 -14 -3 -6 -6z"/>
<path d="M3864 2268 c3 -42 14 -105 25 -140 52 -170 70 -355 47 -497 -6 -42
-6 -52 4 -46 13 8 12 2 -3 -60 -3 -11 -10 -38 -15 -60 -20 -78 -42 -158 -48
-166 -8 -14 -63 -165 -95 -264 -16 -49 -28 -104 -27 -121 1 -18 -4 -39 -11
-48 -8 -9 -9 -16 -3 -16 5 0 12 7 16 15 6 17 52 21 58 4 2 -5 12 -11 21 -13
10 -1 23 -9 28 -17 7 -12 9 -11 9 2 0 9 7 22 15 29 19 16 19 17 -4 -145 -11
-71 -24 -184 -31 -250 -11 -115 -44 -373 -57 -443 l-5 -33 112 3 c61 2 114 7
118 12 3 5 -1 7 -10 4 -8 -4 -15 0 -15 8 0 7 4 11 9 8 5 -3 18 2 29 12 15 13
16 19 7 26 -10 6 -10 8 1 8 11 0 9 4 -4 14 -11 8 -24 12 -29 9 -5 -4 -6 -1 -2
6 6 9 11 9 21 1 10 -8 19 -8 34 0 30 16 27 32 -4 20 -14 -5 -24 -6 -24 -2 4
25 -3 31 -32 28 -19 -2 -27 0 -21 6 12 12 63 18 56 7 -3 -5 0 -9 6 -9 6 0 8
-5 4 -12 -5 -8 -2 -9 11 -5 9 4 24 2 31 -4 12 -10 11 -14 -3 -25 -14 -11 -15
-13 -2 -9 9 3 22 -2 30 -11 12 -15 12 -17 -1 -12 -8 3 -26 8 -40 12 -19 6 -21
5 -10 -3 11 -8 12 -11 2 -11 -8 0 -10 -5 -5 -13 15 -24 12 -38 -7 -32 -10 3
-21 1 -25 -5 -3 -5 -1 -10 5 -10 6 0 8 -6 4 -12 -6 -10 -4 -10 7 -1 7 7 21 13
32 13 12 0 16 4 10 13 -14 23 -13 47 3 47 8 0 13 -4 9 -9 -9 -15 11 -22 37
-12 18 8 19 10 5 10 -10 1 -16 5 -12 10 3 5 -1 16 -10 24 -13 13 -13 16 0 21
8 3 21 4 28 2 6 -1 8 -1 4 2 -4 2 -2 11 5 20 10 12 7 11 -15 -3 -26 -16 -27
-16 -21 0 6 14 3 16 -16 10 -15 -5 -20 -3 -16 3 3 6 1 14 -5 18 -8 4 -9 3 -5
-4 4 -7 2 -12 -3 -12 -10 0 -15 14 -12 34 1 5 -5 6 -14 2 -12 -4 -14 0 -11 19
4 19 1 23 -12 18 -10 -4 -14 -2 -9 3 11 11 58 13 51 2 -10 -15 14 -8 27 9 8 9
9 14 3 10 -7 -4 -17 0 -24 9 -7 8 -19 13 -27 10 -8 -3 -12 -2 -8 3 3 5 -1 12
-7 15 -7 3 -3 3 9 0 18 -4 22 -2 17 10 -3 9 -10 16 -14 16 -12 0 -6 28 8 42 8
8 12 9 12 1 0 -6 -6 -14 -12 -16 -10 -4 -10 -6 0 -6 6 -1 12 -10 12 -21 0 -11
5 -20 11 -20 6 0 8 -7 5 -16 -4 -10 3 -8 22 8 25 20 26 25 13 34 -12 10 -11
11 10 11 20 0 24 -5 24 -29 1 -21 -3 -27 -13 -23 -12 4 -13 3 -2 -9 11 -14 14
-14 28 1 22 22 21 33 -4 66 -14 18 -28 25 -38 21 -12 -5 -19 2 -27 25 -6 17
-15 29 -19 26 -5 -3 -15 -2 -24 1 -13 5 -12 9 9 26 14 11 25 24 25 30 0 6 8
17 18 24 16 12 15 14 -7 38 -27 29 -53 36 -28 8 10 -10 14 -22 10 -27 -5 -4 0
-5 10 -2 9 4 17 2 17 -2 0 -8 -28 -23 -40 -22 -9 2 -6 26 5 33 6 5 3 8 -7 8
-11 0 -16 6 -13 20 2 11 -1 20 -6 20 -6 0 -7 5 -4 10 4 6 12 4 21 -5 9 -8 20
-15 26 -15 6 0 8 3 5 6 -3 4 -2 15 4 26 9 17 8 18 -8 10 -16 -9 -18 -6 -18 19
-1 28 5 33 32 30 6 -1 14 3 18 9 3 5 0 10 -8 10 -7 0 -24 11 -36 24 -17 19
-20 26 -9 32 7 4 10 4 6 0 -4 -5 1 -17 11 -27 16 -17 22 -18 47 -8 16 7 33 11
38 10 5 -1 3 6 -4 16 -8 10 -16 20 -18 23 -2 3 -2 -4 0 -14 1 -10 -3 -21 -10
-24 -9 -3 -13 3 -12 19 1 13 1 26 0 29 -8 22 -7 39 3 33 7 -4 8 0 4 11 -4 9
-3 15 2 12 5 -3 12 1 15 10 5 12 2 15 -10 10 -14 -5 -15 -4 -5 8 9 11 9 15 0
18 -7 2 -10 10 -8 17 4 11 8 11 20 -1 8 -8 22 -15 32 -15 24 0 21 6 -9 17 -14
6 -22 15 -18 21 4 7 0 9 -13 5 -13 -4 -20 -2 -20 8 0 10 6 12 21 6 12 -4 20
-13 19 -19 -2 -6 4 -8 12 -4 12 4 13 9 4 19 -6 7 -8 18 -4 25 6 8 2 8 -13 0
-13 -7 -29 -8 -44 -2 -13 6 -17 10 -10 10 7 1 11 5 7 10 -3 5 0 13 6 17 7 4 9
3 5 -4 -11 -18 31 -23 66 -8 l33 16 -33 -6 c-42 -7 -40 14 3 38 17 9 27 18 23
19 -19 4 -24 5 -46 13 -12 4 -20 12 -16 17 3 6 12 5 22 -3 15 -11 15 -11 6 2
-7 8 -11 31 -10 50 1 30 5 35 29 38 15 2 27 0 26 -5 -4 -24 2 -53 11 -48 5 3
20 -1 32 -9 27 -19 42 -21 32 -3 -5 8 -2 8 9 -2 18 -15 23 -26 7 -16 -5 3 -10
3 -10 -2 0 -13 17 -35 26 -34 5 0 8 -6 8 -14 -1 -8 1 -14 5 -13 19 2 24 -4 11
-12 -11 -7 -11 -10 -2 -10 7 0 10 -6 7 -12 -4 -7 0 -5 8 5 16 20 33 22 43 5 4
-7 3 -8 -4 -4 -7 4 -12 3 -12 -2 0 -5 -10 -14 -22 -20 -13 -6 -18 -11 -11 -11
7 -1 10 -11 7 -27 -3 -19 -1 -24 8 -18 10 6 9 3 -1 -9 -11 -14 -11 -18 4 -23
17 -7 17 -8 -1 -21 -10 -7 -12 -13 -5 -13 7 0 9 -5 5 -12 -5 -8 -2 -9 9 -5 10
4 20 0 26 -11 6 -9 11 -13 11 -9 0 4 9 3 20 -3 21 -11 16 -45 -6 -36 -7 3 -16
1 -19 -5 -4 -5 -3 -8 2 -7 11 4 13 -4 7 -29 -4 -13 -10 -20 -15 -18 -4 3 -6
12 -2 20 6 17 -8 20 -23 5 -5 -5 -19 -7 -32 -3 -21 5 -21 6 -5 20 13 10 9 10
-15 -2 -18 -9 -30 -20 -27 -25 4 -6 8 -10 11 -10 3 0 2 5 -2 12 -5 8 -2 9 10
5 10 -4 23 -7 29 -7 7 0 6 -4 -2 -9 -8 -5 -16 -17 -17 -26 -2 -14 2 -14 31 4
22 13 36 16 43 9 7 -7 17 3 31 31 12 22 27 41 34 41 7 0 8 -3 2 -8 -13 -9 -19
-35 -7 -28 5 3 17 -3 27 -14 10 -11 23 -20 28 -20 6 0 0 11 -13 25 -13 14 -20
25 -15 25 4 0 0 9 -10 20 -17 19 -17 19 13 15 29 -3 30 -2 19 16 -6 10 -19 19
-27 19 -13 0 -13 -1 0 -10 8 -5 12 -11 9 -14 -9 -9 -49 24 -49 39 0 10 -9 14
-24 13 -14 -1 -22 -6 -20 -10 3 -4 -2 -5 -11 -2 -14 6 -13 8 4 20 11 8 28 12
38 9 10 -3 3 2 -14 10 -40 18 -40 20 -8 21 14 1 22 -2 19 -7 -3 -5 2 -9 10 -9
23 0 19 15 -6 29 -13 6 -15 10 -6 7 9 -3 19 2 22 10 3 8 16 14 28 14 l23 -1
-24 -13 c-21 -12 -22 -14 -5 -20 15 -6 16 -9 5 -16 -12 -7 -12 -12 3 -34 9
-14 22 -27 29 -27 6 -1 17 -2 22 -4 6 -1 15 -3 21 -3 6 -1 11 -8 11 -16 0 -9
-6 -12 -16 -8 -11 4 -9 -2 7 -22 12 -16 19 -33 15 -40 -12 -18 -11 -70 1 -85
9 -12 8 -13 -4 -7 -8 4 -6 0 4 -8 11 -9 28 -16 38 -16 10 0 18 -5 18 -10 0 -6
-3 -9 -7 -8 -5 1 -24 -4 -43 -11 -55 -21 -77 -21 -96 0 -9 10 -14 19 -9 19 4
0 2 7 -5 15 -7 8 -9 15 -5 15 4 0 2 6 -4 14 -9 11 -8 15 6 20 9 4 21 1 27 -6
6 -7 7 -10 2 -5 -17 12 -26 8 -23 -10 4 -24 16 -43 28 -43 6 0 7 5 3 11 -3 6
8 4 24 -5 30 -16 31 -15 26 7 -3 12 -6 28 -6 35 -1 7 -7 11 -14 8 -8 -3 -16 0
-20 6 -4 6 -3 8 2 5 6 -3 16 -2 24 4 12 7 11 9 -6 9 -11 0 -29 9 -39 20 -17
19 -19 19 -36 4 -10 -9 -16 -21 -13 -26 3 -4 0 -7 -8 -6 -8 2 -13 -6 -13 -21
0 -14 -6 -26 -13 -29 -9 -3 -10 -8 -3 -16 7 -8 4 -12 -12 -13 -15 -2 -18 0 -9
6 10 6 8 10 -7 14 -12 3 -27 0 -34 -7 -7 -7 -22 -12 -34 -11 -13 1 -19 -3 -16
-8 4 -6 -1 -8 -11 -4 -10 4 -23 7 -29 7 -6 0 -2 7 9 15 17 14 17 14 1 9 -13
-5 -18 -2 -15 9 2 9 -1 15 -7 14 -5 -1 -8 -6 -6 -12 2 -5 4 -20 4 -31 1 -14 6
-20 14 -17 7 3 25 -3 41 -13 30 -20 38 -19 34 2 -2 8 4 14 13 14 10 0 13 5 9
11 -4 7 -1 10 7 7 8 -3 14 -9 14 -14 0 -5 4 -15 9 -23 12 -18 -21 -43 -45 -36
-10 3 -20 1 -24 -5 -3 -5 -11 -10 -16 -10 -6 0 -8 4 -5 9 3 5 -1 12 -10 15
-25 10 -26 7 -4 -16 15 -16 23 -19 31 -11 6 6 18 9 25 6 8 -3 25 2 39 11 14 9
25 12 25 6 0 -6 -7 -13 -15 -16 -13 -5 -13 -8 0 -21 15 -15 12 -33 -6 -33 -6
0 -7 6 -3 13 4 6 3 8 -1 4 -13 -11 -15 -37 -4 -37 6 0 7 -5 4 -10 -5 -8 -11
-7 -21 1 -7 6 -11 15 -8 20 3 5 -1 9 -8 9 -9 0 -9 3 2 10 12 7 12 12 2 22 -9
9 -15 9 -24 -1 -11 -10 -9 -11 7 -6 20 7 20 6 1 -9 -13 -10 -15 -16 -7 -16 11
0 11 -3 0 -17 -11 -13 -11 -15 -1 -9 8 5 21 1 32 -9 12 -11 20 -13 25 -6 3 6
11 11 17 11 6 0 5 -7 -3 -17 -13 -16 -12 -17 3 -4 10 7 16 17 13 21 -3 5 7 18
22 29 16 12 21 19 12 15 -18 -6 -34 22 -19 31 6 4 3 16 -6 31 -15 22 -15 24 0
18 26 -10 41 -45 25 -55 -11 -7 -10 -9 4 -9 19 0 23 -15 7 -25 -6 -4 -8 -11
-4 -16 3 -5 0 -8 -7 -7 -6 2 -14 -3 -17 -11 -3 -9 0 -11 8 -6 8 5 11 4 6 -3
-7 -12 27 -35 37 -25 3 3 4 -7 2 -23 l-5 -29 14 25 c8 14 12 29 9 34 -4 5 -1
6 6 2 7 -5 10 -14 7 -22 -3 -8 -1 -14 3 -14 19 0 18 26 -2 47 -18 20 -18 23
-4 29 9 3 14 10 11 15 -3 5 3 6 12 2 13 -5 15 -3 9 8 -7 11 -6 12 7 2 8 -7 19
-9 23 -5 5 4 5 1 1 -6 -4 -7 -12 -9 -18 -6 -7 4 -8 2 -4 -4 5 -8 13 -9 24 -3
20 10 45 3 36 -10 -3 -5 -10 -9 -15 -9 -6 0 -7 5 -3 12 4 7 3 8 -5 4 -6 -4 -9
-12 -6 -17 4 -5 1 -9 -4 -9 -6 0 -9 -10 -7 -23 2 -12 -2 -28 -8 -36 -9 -11 -6
-13 14 -7 21 6 22 5 7 -4 -9 -6 -15 -15 -13 -19 3 -4 -16 -21 -42 -38 -37 -25
-50 -29 -62 -19 -13 9 -13 9 -2 -5 11 -14 8 -16 -22 -15 -19 0 -32 3 -30 5 2
2 -1 10 -7 17 -7 9 -5 14 10 19 17 5 18 9 8 20 -6 7 -16 11 -21 8 -4 -3 -2
-10 5 -15 11 -8 11 -9 -1 -5 -26 7 -15 67 12 67 6 0 4 -8 -3 -17 -11 -15 -11
-16 1 -6 14 13 39 19 27 6 -4 -3 -2 -12 4 -19 8 -9 5 -18 -11 -34 -31 -31 -19
-34 28 -9 32 18 39 25 31 36 -6 7 -16 10 -22 6 -5 -3 -7 -1 -3 5 3 6 -4 18
-16 26 -12 9 -17 16 -10 16 7 0 10 5 6 11 -4 8 -9 8 -17 0 -6 -6 -16 -11 -22
-11 -5 0 -1 7 9 15 42 31 2 13 -54 -25 -64 -44 -80 -49 -59 -23 11 15 11 16
-1 6 -17 -15 -34 -17 -25 -3 3 5 2 10 -4 10 -6 0 -7 7 -4 17 4 11 3 14 -5 9
-7 -4 -12 -2 -12 4 0 6 -4 8 -10 5 -5 -3 -10 -1 -10 4 0 6 -5 11 -12 11 -6 0
-4 -7 5 -18 25 -27 21 -35 -9 -16 -24 16 -26 16 -42 -2 -9 -10 -10 -13 -2 -6
18 15 34 16 24 0 -4 -7 -3 -8 5 -4 14 9 43 -12 35 -25 -3 -5 0 -9 6 -9 7 0 9
7 6 16 -5 14 -4 15 9 4 8 -7 12 -16 9 -21 -3 -5 3 -6 12 -2 12 5 15 3 9 -6 -6
-10 -3 -11 13 -2 28 15 42 14 42 -3 0 -8 5 -16 12 -18 6 -2 -5 -14 -25 -27
-20 -12 -37 -24 -37 -25 0 -2 17 -2 38 0 34 2 35 1 18 -11 -10 -8 -24 -12 -30
-8 -6 3 -8 3 -4 -2 4 -4 0 -14 -10 -21 -27 -21 -37 -16 -16 9 19 22 19 22 -2
4 -25 -21 -29 -50 -5 -38 10 6 21 4 29 -5 7 -8 9 -14 3 -14 -10 0 -9 -19 2
-37 4 -7 0 -16 -10 -22 -10 -6 -13 -11 -8 -11 6 0 23 11 39 23 20 16 26 26 17
31 -7 4 -10 2 -9 -5 2 -6 -2 -13 -9 -16 -8 -3 -11 7 -9 28 1 18 8 35 16 37 7
3 10 0 6 -6 -3 -6 -1 -14 5 -18 8 -4 9 -3 5 4 -8 13 3 16 43 12 14 -1 21 2 17
9 -4 5 -14 7 -24 4 -13 -4 -13 -2 3 10 16 13 17 18 7 25 -11 8 -11 10 2 15 10
4 16 1 16 -8 0 -8 5 -15 11 -15 5 0 7 5 3 12 -4 6 -3 8 3 5 6 -4 19 0 29 8 23
17 45 19 24 2 -17 -14 -27 -53 -11 -42 6 3 11 2 11 -3 0 -5 6 -9 13 -9 6 0 17
-2 23 -4 7 -2 12 -1 13 4 3 23 -1 28 -18 22 -11 -3 -23 -1 -27 6 -4 7 -2 10 7
7 8 -3 23 -1 34 5 11 5 17 6 13 2 -12 -13 12 -34 30 -29 9 3 6 -2 -8 -10 -14
-8 -19 -15 -12 -16 8 0 6 -7 -7 -21 -11 -12 -24 -18 -30 -14 -16 9 -13 25 3
19 8 -3 16 -2 19 3 3 4 -5 9 -18 9 -15 1 -25 -5 -28 -17 -4 -13 0 -19 11 -19
13 0 11 -4 -6 -16 -23 -16 -21 -34 4 -34 8 0 14 7 12 16 -2 10 4 19 12 22 8 3
12 1 7 -3 -4 -5 1 -17 10 -28 15 -17 15 -19 3 -15 -11 4 -16 -1 -17 -13 -1
-10 3 -19 8 -19 6 0 8 4 5 9 -3 5 1 11 9 14 9 4 12 1 8 -9 -3 -7 -1 -14 4 -14
18 0 23 13 11 28 -16 18 -21 52 -8 52 6 0 10 -4 10 -10 0 -20 2 -25 12 -38 9
-10 16 -9 35 4 14 8 27 13 31 10 3 -3 2 -6 -3 -6 -4 0 -2 -7 5 -15 7 -8 18
-15 24 -15 6 0 2 7 -8 15 -11 8 -15 15 -10 15 6 0 15 -5 22 -12 9 -9 15 -9 24
0 17 17 -6 32 -36 24 -19 -5 -19 -4 -7 11 7 9 17 15 21 12 5 -3 12 -1 15 5 4
6 15 8 25 5 15 -5 18 -2 15 15 -3 18 -1 19 17 9 l21 -11 -24 -19 c-16 -12 -27
-14 -35 -8 -8 7 -14 7 -18 0 -4 -5 3 -13 14 -16 15 -5 18 -10 11 -18 -5 -7
-11 -16 -13 -22 -1 -5 -9 -9 -15 -9 -18 2 -16 -6 5 -23 15 -13 15 -13 -4 -4
-12 6 -25 7 -29 3 -5 -4 -5 -2 -1 5 8 14 -10 26 -43 31 -21 3 -23 1 -11 -13 7
-9 18 -14 25 -11 6 2 12 -2 12 -9 0 -11 -5 -12 -21 -3 -12 6 -24 16 -28 22 -5
8 -11 7 -20 -2 -9 -9 -9 -12 1 -12 7 0 11 -6 8 -13 -6 -17 178 -22 189 -5 4 6
3 8 -3 5 -5 -3 -10 0 -10 7 0 8 7 12 15 8 11 -4 13 -2 6 9 -12 20 -14 39 -3
39 6 0 8 4 4 9 -12 21 18 22 38 2 18 -17 20 -25 10 -39 -6 -9 -16 -16 -21 -15
-5 1 -12 -7 -15 -17 -4 -14 0 -20 12 -20 23 0 41 19 34 38 -4 9 -2 13 4 9 7
-5 9 0 6 13 -3 11 -1 26 3 33 14 18 10 52 -5 49 -7 -1 -18 2 -25 7 -6 5 -18 6
-25 2 -9 -6 -10 -11 -2 -15 6 -4 11 -2 11 4 0 17 17 3 23 -20 4 -16 2 -18 -12
-10 -29 15 -44 37 -30 45 8 6 7 10 -2 17 -10 6 -7 7 9 3 13 -4 29 -1 37 5 15
12 39 4 30 -10 -3 -5 0 -12 6 -16 8 -4 9 -3 5 5 -4 6 0 14 8 17 12 4 13 11 6
24 -5 9 -6 20 -3 24 3 3 1 6 -6 6 -6 0 -11 8 -9 18 2 11 -4 17 -17 17 -12 1
-19 7 -16 15 8 35 8 46 -2 58 -15 19 -29 -8 -14 -28 6 -8 2 -6 -11 4 -22 19
-30 32 -13 22 5 -3 11 1 14 8 3 8 3 17 -1 19 -4 2 0 2 8 -1 45 -14 60 -14 60
1 0 9 10 15 25 15 23 0 23 -2 9 -13 -14 -9 -14 -14 -4 -20 9 -6 11 -4 5 5 -5
8 -4 11 2 7 5 -3 8 -23 7 -44 -1 -21 3 -44 9 -51 8 -10 7 -12 -4 -10 -8 2 -14
-5 -14 -14 0 -9 -4 -20 -8 -24 -12 -12 -8 -26 6 -18 10 6 10 4 0 -7 -18 -18
-16 -34 2 -19 8 7 15 18 15 26 0 18 17 27 26 13 4 -7 3 -9 -4 -5 -7 4 -10 -1
-9 -14 1 -11 7 -20 15 -20 7 0 11 -4 8 -9 -3 -5 2 -15 11 -22 15 -12 16 -12
10 4 -4 11 -3 16 3 12 6 -4 8 -18 5 -33 -2 -14 1 -33 8 -41 10 -12 9 -13 -2
-7 -9 6 -12 5 -9 -5 3 -8 13 -13 23 -11 14 3 15 1 4 -11 -10 -10 -16 -11 -21
-4 -7 11 -38 19 -38 10 0 -3 9 -16 19 -29 13 -17 21 -20 24 -12 4 10 6 10 6 1
1 -7 10 -13 21 -13 11 0 20 6 20 13 0 8 3 9 8 1 4 -6 25 -10 47 -10 30 1 39 5
37 16 -3 11 1 11 16 -3 17 -16 53 -17 420 -17 l402 1 0 619 0 619 -82 39
c-111 53 -274 122 -288 122 -6 0 -79 25 -163 56 -84 31 -213 77 -287 104 -129
45 -360 137 -557 221 -50 21 -138 51 -195 65 -94 25 -109 32 -176 86 -40 33
-99 94 -131 136 -70 92 -165 199 -200 227 -14 11 -32 26 -39 35 -11 13 -12 2
-8 -62z m296 -1083 c4 3 13 -2 20 -10 7 -8 11 -15 9 -16 -31 -6 -38 -6 -34 1
3 4 -2 11 -11 14 -9 3 -12 11 -8 18 6 9 9 9 12 0 2 -7 7 -10 12 -7z m-10 -54
c7 -14 7 -22 -2 -27 -6 -4 -8 -3 -4 4 3 6 -1 18 -10 26 -8 9 -11 16 -5 16 6 0
15 -9 21 -19z m-25 -11 c3 -6 -1 -7 -9 -4 -18 7 -21 14 -7 14 6 0 13 -4 16
-10z m25 -44 c0 -7 -10 -16 -22 -19 -21 -5 -21 -5 -6 7 10 7 15 16 11 19 -3 4
-1 7 5 7 7 0 12 -6 12 -14z m208 -61 c-3 -3 -9 2 -12 12 -6 14 -5 15 5 6 7 -7
10 -15 7 -18z m-195 6 c13 -2 7 -19 -10 -25 -9 -4 -23 1 -34 13 -18 19 -18 19
9 16 15 -2 30 -4 35 -4z m263 -70 c-3 -5 1 -12 10 -15 8 -3 12 -11 9 -17 -5
-7 -13 -5 -25 6 -9 8 -26 13 -36 10 -10 -3 -5 1 11 9 36 18 38 18 31 7z m307
-37 c-4 -11 -8 -12 -20 -3 -11 10 -11 14 -1 20 17 10 28 2 21 -17z m-318 -4
c-3 -5 -13 -6 -21 -3 -12 4 -13 8 -3 14 15 9 32 2 24 -11z m122 14 c-3 -3 -12
-4 -19 -1 -8 3 -5 6 6 6 11 1 17 -2 13 -5z m93 -16 c0 -15 -5 -23 -18 -24 -6
-1 -9 2 -6 8 4 6 -1 8 -14 4 -11 -4 -23 -2 -27 3 -3 7 0 8 9 5 9 -3 16 -2 16
3 0 5 9 9 20 9 11 0 20 -4 20 -8z m-115 -27 c3 -5 2 -12 -3 -15 -5 -3 -9 1 -9
9 0 17 3 19 12 6z m65 -11 c0 -5 -5 -12 -12 -16 -7 -5 -8 -3 -3 6 5 8 4 11 -3
6 -12 -7 -5 -36 8 -36 5 0 10 6 13 13 2 6 4 0 3 -14 -1 -24 -4 -26 -24 -18
-13 5 -28 6 -34 3 -5 -3 -2 8 6 25 9 17 14 31 11 31 -4 0 -4 4 0 10 6 10 35 2
35 -10z m60 -15 c14 -16 10 -18 -14 -9 -9 3 -16 10 -16 15 0 14 16 11 30 -6z
m-136 -21 c3 -8 2 -12 -4 -9 -6 3 -10 10 -10 16 0 14 7 11 14 -7z m-409 -4
c-3 -5 -1 -10 6 -10 7 0 10 -3 6 -6 -9 -9 -28 6 -22 17 4 5 8 9 11 9 3 0 2 -4
-1 -10z m345 -25 c0 -9 -6 -12 -16 -8 -13 5 -13 7 -2 14 17 11 18 11 18 -6z
m491 -52 c13 -16 12 -17 -3 -4 -10 7 -18 15 -18 17 0 8 8 3 21 -13z m-156 -43
c3 -6 -1 -7 -9 -4 -18 7 -21 14 -7 14 6 0 13 -4 16 -10z m-394 -20 c-13 -11
-28 -20 -35 -20 -6 0 3 9 19 19 39 25 46 25 16 1z m223 -4 c-1 -12 -3 -30 -3
-40 -1 -15 -4 -17 -13 -8 -8 8 -8 15 1 26 8 10 9 16 1 21 -14 9 -13 22 3 22 8
0 12 -9 11 -21z m171 -6 c3 -6 -1 -7 -9 -4 -10 4 -16 1 -16 -7 0 -7 -3 -10 -6
-6 -7 7 4 27 16 27 5 0 12 -4 15 -10z m-79 -32 c3 -4 -1 -5 -10 -4 -8 1 -18 5
-22 8 -3 4 1 5 10 4 8 -1 18 -5 22 -8z m-30 -21 c10 -12 12 -17 5 -10 -7 6
-19 9 -26 7 -6 -3 -17 1 -23 8 -8 11 -7 14 8 15 10 1 26 -8 36 -20z m251 -12
c0 -8 -4 -12 -9 -9 -5 3 -6 10 -3 15 9 13 12 11 12 -6z m60 0 c0 -8 -4 -15 -9
-15 -10 0 -11 14 -1 23 9 10 10 9 10 -8z m-432 -5 c3 -5 2 -10 -4 -10 -5 0
-13 5 -16 10 -3 6 -2 10 4 10 5 0 13 -4 16 -10z m1195 -24 c0 -3 -4 -8 -10
-11 -5 -3 -10 -1 -10 4 0 6 5 11 10 11 6 0 10 -2 10 -4z m-1415 -16 c-3 -5
-12 -10 -18 -10 -7 0 -6 4 3 10 19 12 23 12 15 0z m516 -7 c13 -16 12 -17 -3
-4 -17 13 -22 21 -14 21 2 0 10 -8 17 -17z m-301 -29 c0 -8 -19 -13 -24 -6 -3
5 1 9 9 9 8 0 15 -2 15 -3z m335 -14 c-3 -5 -13 -6 -22 -3 -12 5 -14 3 -8 -7
6 -9 4 -11 -5 -5 -10 6 -9 11 5 21 19 14 39 9 30 -6z m32 0 c-1 -21 -10 -18
-13 5 -1 8 2 15 6 15 5 0 8 -9 7 -20z m50 5 c0 -8 -4 -12 -9 -9 -5 3 -6 10 -3
15 9 13 12 11 12 -6z m-244 -30 c-6 -18 13 -20 21 -2 3 6 3 0 1 -15 -2 -16 3
-34 11 -43 19 -18 38 -20 28 -2 -4 6 -3 9 1 4 5 -4 10 -18 12 -30 2 -14 0 -18
-5 -9 -10 14 -45 5 -36 -9 3 -5 9 -7 14 -4 17 11 3 -26 -16 -40 -12 -9 -14
-14 -6 -15 7 0 11 -4 7 -9 -3 -6 3 -14 12 -20 13 -7 14 -10 4 -11 -11 0 -9 -5
5 -22 19 -23 19 -23 -2 -5 -22 18 -39 23 -29 8 9 -15 -16 -24 -28 -11 -9 10
-8 12 4 7 9 -3 16 0 16 8 0 7 -6 11 -13 8 -6 -2 -15 0 -18 5 -3 5 3 12 14 15
11 3 20 1 20 -4 0 -5 5 -9 11 -9 8 0 8 4 -1 14 -6 8 -17 13 -24 10 -7 -3 -13
2 -13 11 0 8 4 15 9 15 4 0 7 3 7 8 -3 20 2 32 13 26 7 -4 8 -3 4 4 -5 9 -15
8 -37 -3 -16 -9 -30 -13 -30 -10 -1 3 -2 10 -3 17 -1 15 -37 20 -53 7 -13 -12
-33 -4 -33 13 0 6 9 8 20 5 19 -5 24 3 21 31 -3 17 24 15 39 -3 14 -17 0 -21
-16 -5 -7 7 -11 6 -11 -4 0 -8 4 -13 8 -10 4 2 10 0 14 -6 11 -18 21 -11 21
15 0 14 -5 25 -11 25 -7 0 -20 10 -31 22 l-19 21 30 -19 c30 -18 30 -18 15 1
-9 11 -10 16 -3 11 15 -9 56 17 45 29 -4 5 -2 5 5 1 7 -4 10 -13 6 -21z m-298
5 c-3 -5 -11 -10 -16 -10 -6 0 -7 5 -4 10 3 6 11 10 16 10 6 0 7 -4 4 -10z
m130 0 c3 -5 2 -10 -4 -10 -5 0 -13 5 -16 10 -3 6 -2 10 4 10 5 0 13 -4 16
-10z m343 -13 c-1 -2 3 -11 10 -19 10 -13 10 -17 -4 -22 -13 -5 -14 -9 -4 -21
9 -11 9 -15 1 -15 -7 0 -10 -4 -7 -9 9 -13 -4 -41 -19 -41 -6 0 -20 10 -31 22
-10 13 -12 18 -4 12 18 -13 52 -15 44 -2 -3 5 -11 6 -17 2 -7 -3 -4 1 6 9 15
13 15 16 2 27 -8 6 -13 17 -12 23 1 7 -4 11 -11 9 -8 -1 -11 2 -7 8 5 8 11 7
22 -1 12 -10 16 -10 23 1 5 8 6 19 3 25 -4 5 -3 7 1 3 4 -3 6 -8 4 -11z m-90
-5 c-2 -5 11 -21 27 -36 27 -24 27 -25 4 -12 -14 9 -29 13 -34 9 -4 -5 -5 -3
-1 4 3 6 2 14 -4 18 -6 4 -8 11 -5 16 8 11 16 12 13 1z m-313 -12 c-3 -5 -1
-10 6 -10 7 0 10 -3 6 -6 -9 -9 -28 6 -22 17 4 5 8 9 11 9 3 0 2 -4 -1 -10z
m-429 -12 c-10 -6 -22 -6 -26 -2 -5 5 3 10 18 11 22 1 24 0 8 -9z m354 -13
c-7 -8 -17 -15 -22 -15 -6 0 -5 7 2 15 7 8 17 15 22 15 6 0 5 -7 -2 -15z m540
-27 c0 -6 -6 -5 -15 2 -8 7 -15 14 -15 16 0 2 7 1 15 -2 8 -4 15 -11 15 -16z
m981 -35 c13 -16 12 -17 -3 -4 -17 13 -22 21 -14 21 2 0 10 -8 17 -17z m-1281
-18 c7 -8 19 -14 28 -13 8 2 16 -5 17 -14 2 -10 -1 -18 -6 -18 -6 0 -8 -4 -4
-9 10 -18 -16 -23 -34 -7 -20 18 -36 21 -26 6 4 -6 3 -10 -2 -9 -20 4 -29 -2
-29 -21 0 -23 14 -27 22 -7 5 13 69 18 76 6 2 -2 1 -3 -1 -2 -2 2 -23 -8 -45
-21 -40 -23 -70 -27 -93 -13 -6 4 -16 0 -23 -8 -7 -8 -17 -12 -22 -8 -6 3 0
12 13 20 l24 14 -25 -6 c-15 -4 -6 5 23 21 26 15 46 33 44 38 -5 12 47 15 59
4 12 -12 26 -9 18 4 -4 7 -3 8 4 4 7 -4 12 -2 12 3 0 10 -14 15 -32 12 -4 0
-12 8 -18 19 -13 23 2 27 20 5z m-250 1 c0 -3 -4 -8 -10 -11 -5 -3 -10 -1 -10
4 0 6 5 11 10 11 6 0 10 -2 10 -4z m-303 -20 c-3 -7 -1 -18 5 -24 6 -6 6 -12
-1 -16 -6 -4 -11 -2 -11 4 0 6 -4 9 -8 6 -5 -3 -7 5 -6 17 3 28 2 27 15 27 6
0 9 -6 6 -14z m263 -11 c-11 -13 -10 -14 5 -9 13 5 16 4 11 -5 -4 -6 -2 -18 4
-26 7 -8 9 -15 5 -15 -4 0 -3 -6 3 -13 9 -10 7 -19 -4 -35 -16 -23 -41 -31
-27 -9 16 26 12 37 -9 26 -34 -18 -31 -3 4 20 18 11 28 21 21 21 -16 0 -36 37
-28 50 3 6 11 10 17 10 6 0 6 -6 -2 -15z m441 -42 c13 -16 12 -17 -3 -4 -10 7
-18 15 -18 17 0 8 8 3 21 -13z m237 -27 c-2 -1 -12 -8 -22 -16 -18 -14 -18
-14 -6 7 8 12 18 19 23 16 4 -3 7 -6 5 -7z m812 -2 c0 -8 -19 -13 -24 -6 -3 5
1 9 9 9 8 0 15 -2 15 -3z m-1145 -15 c4 -6 13 -8 20 -5 8 3 19 -2 25 -10 7 -8
9 -14 5 -14 -5 0 0 -8 9 -19 15 -17 15 -19 1 -25 -9 -3 -14 -2 -11 3 3 5 -4
12 -17 15 -22 6 -22 7 -3 21 19 14 19 15 -8 15 -18 0 -25 -4 -20 -12 4 -7 3
-8 -5 -4 -6 4 -9 11 -6 16 3 5 1 11 -5 15 -5 3 -10 -2 -10 -13 0 -10 -6 -19
-13 -19 -11 0 -11 6 -3 24 12 24 30 30 41 12z m152 -30 c-10 -21 -21 -39 -24
-39 -2 0 -1 5 2 10 3 6 -1 10 -10 10 -9 0 -13 5 -10 10 4 6 11 8 16 5 5 -4 9
-2 9 4 0 5 -12 14 -27 20 l-28 11 28 -4 c15 -2 27 0 27 3 0 4 8 7 18 8 18 1
18 0 -1 -38z m-37 7 c0 -2 -7 -7 -16 -10 -8 -3 -12 -2 -9 4 6 10 25 14 25 6z
m57 -11 c0 -8 -4 -12 -9 -9 -5 3 -6 10 -3 15 9 13 12 11 12 -6z m-494 -20
c-10 -8 -28 -11 -40 -8 -14 3 -23 1 -23 -7 0 -6 -5 -8 -11 -5 -15 10 26 36 44
29 8 -3 18 0 22 5 3 6 11 9 16 5 6 -3 3 -12 -8 -19z m230 12 c-4 -6 0 -8 10
-4 9 3 19 2 22 -3 3 -5 12 -7 19 -4 8 3 17 1 21 -5 9 -15 28 -14 19 2 -4 6 -3
8 1 4 15 -13 14 -37 0 -37 -8 0 -22 -14 -32 -30 -10 -17 -28 -33 -40 -36 -13
-4 -23 -10 -23 -16 0 -5 -5 -6 -11 -3 -6 5 -4 12 8 21 17 13 17 14 -2 8 -17
-4 -16 -3 3 8 12 8 19 18 15 23 -4 4 -2 5 5 1 7 -4 12 -2 12 5 0 7 3 9 6 6 9
-9 44 11 44 25 0 6 -10 3 -22 -8 -17 -16 -20 -16 -15 -3 3 9 1 21 -5 27 -12
12 -38 5 -38 -10 0 -6 7 -8 15 -4 9 3 15 0 15 -9 0 -10 -10 -15 -27 -15 -22 0
-25 -2 -13 -10 8 -5 11 -10 5 -11 -5 0 -22 -2 -38 -4 -15 -2 -25 0 -22 6 4 5
12 9 19 9 19 0 43 30 25 30 -10 1 -9 4 3 14 17 12 16 14 -5 23 -21 10 -21 10
5 10 17 0 25 -4 21 -10z m1046 -17 c-6 -5 -18 -6 -26 -3 -19 8 -16 11 13 11
17 0 22 -3 13 -8z m-29 -14 c0 -2 -8 -10 -17 -17 -16 -13 -17 -12 -4 4 13 16
21 21 21 13z m55 -16 c3 -5 1 -10 -4 -10 -6 0 -11 5 -11 10 0 6 2 10 4 10 3 0
8 -4 11 -10z m-620 -10 c-9 -14 14 -42 28 -33 6 4 7 1 3 -6 -6 -9 -13 -8 -27
5 -10 9 -19 13 -20 8 -2 -24 -8 -46 -15 -52 -4 -4 -5 0 -1 9 3 9 0 22 -6 29
-9 10 -9 11 1 6 6 -4 12 -3 12 1 0 5 -6 15 -12 23 -11 12 -10 12 3 2 14 -10
18 -10 23 3 3 8 8 15 11 15 4 0 3 -5 0 -10z m420 -9 c3 -5 2 -12 -3 -15 -5 -3
-9 1 -9 9 0 17 3 19 12 6z m320 -1 c3 -6 -1 -7 -9 -4 -18 7 -21 14 -7 14 6 0
13 -4 16 -10z m-350 -49 c3 -5 2 -12 -3 -15 -5 -3 -9 1 -9 9 0 17 3 19 12 6z
m-1450 -10 c3 -5 0 -13 -6 -17 -8 -5 -9 -3 -4 6 6 10 4 12 -9 7 -10 -4 -15 -3
-11 3 8 13 22 13 30 1z m1818 -28 c-7 -2 -19 -2 -25 0 -7 3 -2 5 12 5 14 0 19
-2 13 -5z m64 -9 c-3 -3 -12 -4 -19 -1 -8 3 -5 6 6 6 11 1 17 -2 13 -5z"/>
<path d="M4135 1010 c-3 -5 -1 -10 4 -10 6 0 11 5 11 10 0 6 -2 10 -4 10 -3 0
-8 -4 -11 -10z"/>
<path d="M4694 461 c13 -15 14 -20 4 -24 -10 -4 -10 -6 0 -6 6 -1 12 -6 12
-12 0 -5 -5 -7 -12 -3 -6 4 -8 3 -5 -3 6 -9 25 -10 62 -4 6 1 -3 8 -20 16 -16
7 -23 14 -15 14 13 1 13 2 0 11 -8 5 -10 10 -5 10 12 0 -16 20 -29 20 -5 0 -1
-9 8 -19z"/>
<path d="M4870 450 c-9 -6 -10 -10 -3 -10 6 0 15 5 18 10 8 12 4 12 -15 0z"/>
<path d="M4557 276 c-15 -12 -15 -15 -2 -26 12 -10 15 -10 15 0 0 10 3 10 15
0 12 -10 20 -9 40 4 14 9 25 19 25 22 0 4 -11 -1 -25 -10 -28 -18 -47 -14 -38
9 6 18 -6 19 -30 1z"/>
<path d="M4644 125 c-10 -8 -14 -15 -8 -15 6 0 17 7 24 15 16 19 9 19 -16 0z"/>
<path d="M3296 2262 c6 -4 16 -16 23 -27 10 -17 12 -17 7 -2 -3 10 -6 23 -6
28 0 5 -8 9 -17 9 -11 0 -14 -3 -7 -8z"/>
<path d="M3776 2224 c-10 -25 -38 -71 -61 -103 -43 -59 -315 -341 -329 -341
-6 0 -17 -8 -49 -36 -10 -9 -71 -52 -190 -134 -12 -8 -28 -21 -35 -27 -7 -7
-18 -13 -23 -13 -5 0 -17 -8 -27 -17 -35 -33 -61 -52 -104 -75 -24 -13 -56
-32 -72 -43 -16 -11 -41 -20 -55 -21 -14 -2 -30 -3 -36 -4 -5 0 2 -8 18 -16
32 -17 34 -28 8 -51 -46 -42 -55 -46 -115 -47 -79 -1 -76 2 -228 -253 l-19
-31 30 -29 c27 -25 30 -36 36 -113 7 -81 18 -115 35 -105 4 3 23 -6 41 -18
l34 -23 -1 -87 c-2 -70 -6 -92 -23 -116 -19 -26 -21 -43 -21 -163 0 -73 -5
-149 -10 -168 -6 -20 -7 -69 -4 -113 l7 -78 218 1 c186 1 217 4 212 16 -4 11
-9 12 -18 4 -10 -8 -15 -8 -21 1 -4 8 -3 9 4 5 16 -10 15 6 0 24 -11 12 -10
12 5 1 13 -11 17 -11 17 -1 0 9 8 7 23 -6 22 -19 22 -19 6 1 -9 11 -19 28 -23
39 -5 14 -3 17 11 12 15 -5 14 -3 -2 10 l-20 15 20 15 c11 8 19 17 18 19 -2 3
-1 5 2 5 3 0 7 0 10 0 3 0 0 -10 -6 -22 -11 -20 -10 -21 2 -11 12 10 14 8 14
-12 -1 -13 -8 -32 -16 -41 -8 -10 -9 -15 -2 -11 18 11 25 -10 13 -35 -10 -21
-10 -21 3 -6 8 10 18 14 22 10 5 -4 5 1 2 10 -7 21 18 45 29 27 4 -8 3 -9 -4
-5 -7 4 -12 0 -12 -10 0 -10 -6 -25 -14 -33 -13 -14 -10 -16 24 -19 l38 -2 -5
77 c-4 42 -12 88 -19 102 -9 17 -10 30 -3 43 6 11 7 63 2 136 -5 92 -8 108
-14 77 -4 -22 -6 -59 -4 -82 1 -25 -3 -50 -11 -60 -13 -16 -14 -16 -10 9 3 15
7 32 11 38 3 5 -1 10 -9 10 -20 0 -29 17 -15 26 8 5 9 3 4 -6 -5 -8 -4 -11 3
-6 12 7 5 36 -9 36 -5 0 -9 5 -9 11 0 6 8 8 18 5 15 -5 15 -5 1 6 -18 15 -32
48 -20 48 4 0 7 12 4 28 -3 23 -2 24 6 7 7 -17 10 -14 16 20 5 21 17 59 27 82
15 34 16 47 8 64 -14 25 -5 53 14 46 11 -4 22 13 40 61 28 73 53 112 135 215
56 70 83 82 89 38 2 -14 -5 -31 -17 -42 -12 -11 -21 -29 -21 -40 0 -19 26 -79
34 -79 2 0 4 19 4 42 1 48 23 72 60 65 12 -2 22 0 22 4 0 16 63 9 83 -9 13
-10 8 1 -11 30 -18 26 -37 50 -42 53 -5 3 -26 32 -47 63 -21 31 -67 85 -103
120 -67 65 -181 152 -199 152 -5 0 -17 -10 -25 -21 -16 -24 -65 -35 -196 -45
-41 -3 -81 -7 -88 -9 -20 -7 4 31 34 52 14 10 47 34 73 54 68 52 108 72 114
56 4 -8 6 -7 6 3 1 8 12 22 25 30 39 24 217 163 240 187 11 12 36 33 53 46 18
13 47 42 64 63 17 21 67 77 113 124 45 47 105 114 133 149 51 63 107 164 101
181 -2 6 -11 -11 -22 -36z m-671 -917 c36 -27 -5 -49 -47 -26 -21 11 -21 12
-3 25 23 17 27 17 50 1z m-270 -37 c23 -9 25 -13 15 -25 -15 -19 -70 -20 -70
-2 0 11 19 37 26 37 2 0 15 -5 29 -10z m-259 -112 c-18 -26 -22 -17 -5 14 6
11 13 17 16 15 3 -3 -2 -16 -11 -29z m558 18 c-3 -9 -12 -12 -22 -9 -15 6 -9
11 25 22 1 1 0 -5 -3 -13z m156 -1 c-14 -17 -30 -20 -30 -4 0 5 5 7 10 4 6 -3
10 -1 10 4 0 6 5 11 11 11 8 0 8 -5 -1 -15z m-228 -14 c-10 -6 -10 -10 3 -21
14 -11 19 -7 16 13 -1 4 10 5 24 3 13 -3 27 0 31 5 4 6 11 6 20 -2 19 -16 18
-25 -7 -48 -11 -10 -16 -22 -11 -25 5 -3 15 1 22 9 7 8 16 12 21 9 5 -3 9 0 9
5 0 6 5 11 11 11 19 0 -11 -30 -30 -30 -13 -1 -13 -3 4 -18 20 -18 33 -48 17
-38 -5 3 -18 -2 -28 -10 -16 -13 -16 -15 -2 -10 10 3 20 0 24 -6 5 -7 2 -8 -6
-3 -10 6 -12 1 -7 -21 3 -16 4 -23 1 -17 -4 9 -11 10 -25 3 -10 -6 -19 -8 -19
-5 0 15 3 20 11 17 5 -1 9 5 9 13 0 20 -20 19 -36 -2 -16 -21 -18 -37 -4 -28
6 3 10 2 10 -3 0 -6 7 -13 16 -16 10 -4 13 -2 8 7 -5 8 -4 9 4 2 13 -13 17
-45 8 -67 -6 -14 -12 -15 -26 -8 -12 6 -21 7 -25 0 -3 -5 -12 -7 -20 -4 -8 4
-12 11 -8 17 3 6 1 7 -6 3 -6 -4 -8 -12 -5 -18 5 -7 2 -8 -6 -3 -9 6 -11 4 -5
-6 8 -12 6 -12 -8 0 -10 8 -20 12 -22 9 -3 -3 1 -11 10 -18 11 -10 18 -10 29
-1 10 8 16 9 21 1 3 -5 11 -10 16 -10 6 0 8 4 4 9 -3 5 -1 12 4 15 17 11 21
-11 5 -24 -12 -10 -12 -15 -2 -21 7 -4 9 -11 5 -15 -3 -4 -15 -1 -24 7 -15 11
-15 10 1 -9 17 -20 15 -27 -8 -23 -5 1 -6 -5 -3 -13 3 -8 1 -17 -6 -19 -9 -3
-9 -8 1 -20 11 -13 10 -15 -5 -12 -10 1 -17 8 -16 13 2 6 -4 9 -12 6 -11 -5
-13 -2 -9 10 3 9 11 13 18 9 6 -4 5 1 -3 10 -16 20 -18 20 -27 5 -4 -7 -3 -8
4 -4 7 4 12 5 12 2 0 -3 -14 -13 -32 -22 l-32 -17 34 37 c32 33 36 35 47 19
15 -19 17 -5 4 16 -7 10 -4 19 7 28 15 13 15 13 -4 4 -12 -6 -25 -7 -29 -3 -5
4 -6 0 -3 -8 3 -9 -5 -23 -19 -33 l-24 -18 21 33 c22 36 26 53 10 43 -5 -3
-10 1 -10 9 0 8 5 18 11 21 6 5 3 13 -10 22 -12 8 -18 19 -15 25 4 6 0 16 -8
22 -14 10 -14 14 -2 31 8 10 17 16 20 12 4 -4 1 -13 -5 -21 -8 -10 -9 -16 -1
-21 6 -4 9 -12 8 -18 -3 -11 41 -63 43 -52 1 3 3 10 4 15 1 6 3 15 4 21 0 6 8
3 17 -5 8 -9 18 -16 22 -16 3 0 1 5 -6 12 -8 8 -8 15 -2 23 7 9 5 16 -5 25
-12 10 -15 10 -15 -1 0 -8 -10 -20 -21 -28 l-22 -13 22 30 c23 33 26 43 12 40
-19 -6 -15 15 7 30 20 13 22 13 22 -1 0 -11 -5 -14 -17 -10 -16 6 -16 5 -4
-10 18 -22 23 -21 40 4 10 18 10 23 0 30 -10 6 -10 11 0 22 10 13 9 16 -6 20
-15 4 -15 5 -2 6 9 0 23 -7 30 -16 8 -10 9 -14 2 -10 -6 4 -14 3 -18 -2 -3 -6
4 -15 15 -21 16 -9 20 -8 20 4 0 10 6 13 15 10 8 -4 15 -2 15 4 0 10 -29 38
-39 36 -9 -2 -85 48 -89 58 -2 4 -9 5 -15 1 -7 -4 -6 1 2 10 7 9 19 17 25 17
7 0 6 -3 -2 -9z m-14 -48 c12 8 38 -11 28 -20 -5 -4 -11 -3 -13 4 -2 7 -10 10
-17 7 -7 -3 -19 3 -27 13 -13 16 -12 17 3 5 9 -8 21 -11 26 -9z m297 -22 c-3
-12 -10 -21 -15 -21 -14 0 -21 32 -9 47 16 19 33 1 24 -26z m-479 15 c18 -14
18 -16 2 -32 -15 -15 -21 -16 -44 -5 -26 11 -26 12 -9 31 22 24 25 24 51 6z
m112 -10 c-7 -8 -15 -12 -17 -11 -5 6 10 25 20 25 5 0 4 -6 -3 -14z m77 -17
c3 -3 -3 -14 -14 -23 -13 -12 -21 -14 -26 -6 -3 6 -3 10 2 9 20 -3 25 2 14 15
-10 11 -9 14 3 12 9 -1 18 -4 21 -7z m28 -23 c4 -11 1 -13 -10 -9 -10 4 -14 2
-10 -4 3 -5 0 -10 -8 -10 -13 0 -12 4 2 19 19 22 19 22 26 4z m-43 -42 c0 -8
-19 -13 -24 -6 -3 5 1 9 9 9 8 0 15 -2 15 -3z m0 -45 c0 -5 -4 -9 -8 -9 -5 0
-9 7 -9 15 0 8 4 12 9 9 4 -3 8 -9 8 -15z m-66 -48 c-2 -3 -12 3 -22 13 -16
17 -16 18 5 5 12 -7 20 -15 17 -18z m-79 -5 c16 -12 17 -16 6 -30 -16 -20 -35
-20 -50 -2 -13 16 -5 46 13 46 7 0 21 -6 31 -14z m-329 -23 c-10 -10 -19 5
-10 18 6 11 8 11 12 0 2 -7 1 -15 -2 -18z m404 13 c0 -11 -19 -15 -25 -6 -3 5
1 10 9 10 9 0 16 -2 16 -4z m24 -27 c-3 -5 -10 -7 -15 -3 -5 3 -7 10 -3 15 3
5 10 7 15 3 5 -3 7 -10 3 -15z m-49 -38 c3 -5 2 -12 -3 -15 -5 -3 -9 1 -9 9 0
17 3 19 12 6z m55 -1 c0 -5 -5 -10 -11 -10 -5 0 -7 5 -4 10 3 6 8 10 11 10 2
0 4 -4 4 -10z m-20 -26 c0 -8 -19 -13 -24 -6 -3 5 1 9 9 9 8 0 15 -2 15 -3z
m76 -95 c15 -12 9 -33 -7 -24 -16 10 -10 -7 7 -19 14 -10 12 -15 -12 -39 -28
-28 -44 -34 -44 -17 0 6 5 10 11 10 6 0 0 14 -12 31 l-22 31 22 -13 c11 -8 21
-17 21 -21 0 -9 27 -4 37 7 4 4 3 5 -3 2 -18 -10 -57 23 -45 37 7 9 7 16 -1
24 -15 15 28 7 48 -9z m-61 2 c3 -5 0 -13 -6 -17 -7 -4 -9 -3 -5 4 3 5 0 13
-6 15 -9 4 -10 6 -1 6 6 1 14 -3 18 -8z m-83 -22 l21 -11 -24 -19 c-22 -16
-25 -16 -41 -2 -13 12 -14 18 -5 29 15 16 23 17 49 3z m-122 -13 c0 -2 -7 -6
-15 -10 -8 -3 -15 -1 -15 4 0 6 7 10 15 10 8 0 15 -2 15 -4z m-15 -161 c-3
-38 -11 -96 -16 -129 -6 -32 -8 -64 -6 -71 3 -6 1 -18 -3 -26 -6 -8 -7 6 -5
36 2 28 7 108 11 180 5 96 9 123 16 105 5 -14 6 -56 3 -95z m275 70 c7 -9 10
-18 6 -22 -3 -3 -6 -1 -6 5 0 7 -5 12 -11 12 -6 0 -9 -6 -6 -14 4 -11 -1 -13
-19 -10 -13 2 -24 0 -24 -6 0 -5 -6 -10 -12 -10 -12 0 40 58 53 59 4 1 12 -6
19 -14z m-15 -73 c-3 -3 -11 0 -18 7 -9 10 -8 11 6 5 10 -3 15 -9 12 -12z
m-55 -75 c0 -6 -6 -3 -13 8 -16 21 -33 5 -23 -22 5 -13 4 -14 -9 -3 -14 12
-14 15 1 31 13 14 20 16 31 8 7 -6 13 -16 13 -22z m14 -32 c3 -8 1 -15 -4 -15
-6 0 -10 7 -10 15 0 8 2 15 4 15 2 0 6 -7 10 -15z m2 -92 c-5 -18 -3 -23 5
-17 7 4 10 3 7 -2 -3 -5 0 -15 8 -21 8 -8 15 -9 19 -3 10 16 25 11 25 -7 0
-16 -2 -16 -11 -3 -9 12 -10 11 -6 -8 3 -12 2 -20 -3 -17 -4 3 -11 -2 -14 -11
-3 -8 -2 -12 4 -9 6 3 10 -1 10 -10 0 -21 27 -49 32 -34 2 6 12 0 23 -13 18
-21 18 -21 1 -8 -18 14 -18 13 -11 -10 5 -19 -8 -10 -54 38 -52 53 -60 65 -51
81 13 24 13 34 1 26 -6 -3 -6 6 -1 25 5 19 5 28 -1 25 -10 -7 -13 18 -2 29 12
12 25 -24 19 -51z m8 -122 c18 -15 22 -46 4 -35 -7 5 -9 2 -6 -8 4 -8 -2 -21
-12 -28 -17 -12 -18 -36 -1 -26 4 3 8 -4 8 -15 2 -18 0 -18 -17 3 -12 15 -15
27 -9 35 7 7 6 14 -2 19 -8 4 -9 3 -5 -4 13 -21 -10 -13 -32 11 -19 21 -20 25
-7 43 16 24 54 26 79 5z m79 -88 c6 -13 -20 -56 -27 -45 -3 6 -1 14 5 17 5 4
8 13 5 21 -5 14 10 20 17 7z"/>
<path d="M3140 1151 c0 -5 5 -13 10 -16 6 -3 10 -2 10 4 0 5 -4 13 -10 16 -5
3 -10 2 -10 -4z"/>
<path d="M3020 705 c-7 -9 -8 -15 -2 -15 5 0 12 7 16 15 3 8 4 15 2 15 -2 0
-9 -7 -16 -15z"/>
<path d="M2874 689 c-11 -18 11 -32 25 -16 9 12 8 16 -3 20 -9 4 -18 1 -22 -4z"/>
<path d="M2990 266 c0 -2 8 -10 18 -17 15 -13 16 -12 3 4 -13 16 -21 21 -21
13z"/>
<path d="M3610 2200 c-8 -5 -12 -12 -9 -15 4 -3 12 1 19 10 14 17 11 19 -10 5z"/>
<path d="M3234 2174 c3 -9 6 -18 6 -20 0 -2 9 1 20 8 27 17 25 28 -6 28 -20 0
-25 -4 -20 -16z"/>
<path d="M3520 2140 c0 -5 5 -10 11 -10 5 0 7 5 4 10 -3 6 -8 10 -11 10 -2 0
-4 -4 -4 -10z"/>
<path d="M3395 2130 c3 -5 8 -10 11 -10 2 0 4 5 4 10 0 6 -5 10 -11 10 -5 0
-7 -4 -4 -10z"/>
<path d="M3326 2105 c-9 -26 -7 -32 5 -12 6 10 9 21 6 23 -2 3 -7 -2 -11 -11z"/>
<path d="M3290 2090 c0 -5 5 -10 11 -10 5 0 7 5 4 10 -3 6 -8 10 -11 10 -2 0
-4 -4 -4 -10z"/>
<path d="M3230 2055 c-14 -16 -3 -20 19 -6 8 5 9 11 3 15 -5 3 -15 -1 -22 -9z"/>
<path d="M3090 2039 c0 -5 5 -7 10 -4 6 3 10 8 10 11 0 2 -4 4 -10 4 -5 0 -10
-5 -10 -11z"/>
<path d="M2880 2006 c0 -2 7 -7 16 -10 8 -3 12 -2 9 4 -6 10 -25 14 -25 6z"/>
<path d="M2944 1978 c-7 -11 18 -10 36 2 11 7 10 9 -8 7 -13 -1 -26 -5 -28 -9z"/>
<path d="M2670 1690 c0 -5 5 -10 10 -10 6 0 10 5 10 10 0 6 -4 10 -10 10 -5 0
-10 -4 -10 -10z"/>
<path d="M2685 1466 c17 -13 32 -22 35 -19 6 5 -41 42 -55 43 -5 0 4 -11 20
-24z"/>
<path d="M2740 1425 c7 -8 20 -15 28 -15 13 0 12 3 -4 15 -25 19 -40 19 -24 0z"/>
<path d="M2000 1211 c0 -17 18 -21 24 -6 3 9 0 15 -9 15 -8 0 -15 -4 -15 -9z"/>
<path d="M4177 1116 c-3 -8 0 -19 6 -24 9 -8 12 -4 13 14 2 26 -11 33 -19 10z"/>
<path d="M1886 1018 c3 -5 10 -6 15 -3 13 9 11 12 -6 12 -8 0 -12 -4 -9 -9z"/>
<path d="M1907 918 c-7 -20 -7 -28 0 -30 3 -2 8 7 9 20 4 24 -1 30 -9 10z"/>
<path d="M3457 903 c-11 -10 -8 -53 3 -53 6 0 10 14 10 30 0 31 -2 35 -13 23z"/>
<path d="M4320 880 c0 -5 5 -10 11 -10 5 0 7 5 4 10 -3 6 -8 10 -11 10 -2 0
-4 -4 -4 -10z"/>
<path d="M4235 860 c4 -6 11 -8 16 -5 14 9 11 15 -7 15 -8 0 -12 -5 -9 -10z"/>
<path d="M4215 839 c-4 -6 -2 -16 5 -22 10 -9 11 -9 6 0 -3 6 -1 13 6 15 9 3
9 6 1 11 -7 4 -15 2 -18 -4z"/>
<path d="M4276 836 c3 -8 13 -17 22 -21 13 -5 13 -2 -3 15 -21 24 -26 25 -19
6z"/>
<path d="M3715 830 c-3 -5 -1 -10 4 -10 6 0 11 5 11 10 0 6 -2 10 -4 10 -3 0
-8 -4 -11 -10z"/>
<path d="M4166 832 c-3 -5 1 -9 9 -9 8 0 12 4 9 9 -3 4 -7 8 -9 8 -2 0 -6 -4
-9 -8z"/>
<path d="M4154 803 c3 -4 1 -12 -4 -18 -8 -9 -6 -14 5 -19 9 -3 13 -2 10 3 -3
6 2 14 11 19 14 8 13 10 -6 15 -12 3 -19 3 -16 0z"/>
<path d="M4350 790 c8 -5 11 -10 5 -10 -5 0 -3 -5 5 -10 13 -9 13 -10 0 -10
-12 -1 -11 -3 3 -11 9 -6 14 -15 11 -21 -4 -7 -2 -8 5 -4 8 6 9 11 2 20 -8 10
-4 13 20 14 34 1 55 12 23 12 -11 0 -26 6 -33 13 -11 10 -13 10 -7 0 4 -7 3
-13 -2 -13 -6 0 -12 7 -16 15 -3 8 -11 15 -18 15 -9 0 -8 -3 2 -10z"/>
<path d="M4310 780 c0 -5 5 -10 11 -10 5 0 7 5 4 10 -3 6 -8 10 -11 10 -2 0
-4 -4 -4 -10z"/>
<path d="M3851 764 c0 -11 3 -14 6 -6 3 7 2 16 -1 19 -3 4 -6 -2 -5 -13z"/>
<path d="M4192 761 c-10 -6 -10 -10 2 -20 11 -9 16 -9 22 0 5 8 3 9 -6 4 -10
-6 -12 -4 -7 8 7 19 7 20 -11 8z"/>
<path d="M4167 729 c7 -7 15 -10 18 -7 3 3 -2 9 -12 12 -14 6 -15 5 -6 -5z"/>
<path d="M4226 731 c-3 -5 1 -11 9 -14 9 -4 12 -1 8 9 -6 16 -10 17 -17 5z"/>
<path d="M4516 731 c-3 -5 2 -8 12 -7 11 1 16 -5 14 -16 -1 -9 3 -20 9 -24 8
-4 9 -3 5 5 -4 6 -2 19 6 28 8 10 8 14 1 10 -6 -4 -14 -3 -18 3 -8 12 -22 13
-29 1z"/>
<path d="M4215 699 c-4 -6 -5 -12 -2 -15 2 -3 7 2 10 11 7 17 1 20 -8 4z"/>
<path d="M4265 701 c-6 -11 13 -26 22 -17 4 3 0 6 -8 6 -11 0 -11 2 1 10 9 6
10 10 3 10 -6 0 -14 -4 -18 -9z"/>
<path d="M4130 676 c0 -2 7 -7 16 -10 8 -3 12 -2 9 4 -6 10 -25 14 -25 6z"/>
<path d="M4173 666 c7 -17 -15 -27 -34 -16 -8 5 -19 5 -26 -1 -7 -6 -17 -8
-23 -4 -5 3 -10 2 -10 -3 0 -20 59 -18 101 3 33 17 38 23 25 28 -28 11 -39 8
-33 -7z"/>
<path d="M4255 660 c-6 -10 1 -14 19 -11 5 1 13 -4 17 -11 6 -9 9 -10 9 -1 0
17 -37 36 -45 23z"/>
<path d="M4220 650 c-9 -6 -10 -10 -3 -10 6 0 15 5 18 10 8 12 4 12 -15 0z"/>
<path d="M4315 630 c-3 -5 -3 -10 2 -11 44 -6 80 -6 92 1 8 4 -3 7 -27 5 -23
-1 -42 2 -42 6 0 12 -17 11 -25 -1z"/>
<path d="M4150 615 c-14 -8 -20 -14 -15 -14 6 0 21 6 35 14 14 8 21 14 15 14
-5 0 -21 -6 -35 -14z"/>
<path d="M4191 611 c-17 -13 -22 -25 -18 -40 4 -17 2 -21 -9 -17 -9 3 -12 1
-9 -4 8 -12 -5 -13 -24 -1 -9 6 -10 11 -2 15 6 4 9 11 6 16 -3 5 -15 0 -27
-12 -15 -15 -17 -22 -8 -28 7 -5 19 -6 27 -3 7 3 13 0 13 -6 0 -6 7 -8 17 -4
11 4 14 3 9 -5 -5 -8 -1 -10 10 -5 12 4 15 3 10 -5 -8 -14 3 -15 22 -3 10 6 7
10 -12 15 -32 8 -26 26 7 19 16 -3 18 -2 8 5 -11 8 -10 12 5 21 11 6 14 11 7
11 -6 0 -15 -4 -18 -10 -11 -17 -25 -11 -25 11 0 15 4 19 19 14 11 -3 22 -1
26 4 4 7 -1 8 -12 4 -16 -6 -16 -5 -4 10 17 22 12 21 -18 -2z"/>
<path d="M4513 577 c0 -7 9 -13 19 -13 10 0 18 1 18 3 0 1 -8 7 -18 12 -13 7
-19 6 -19 -2z"/>
<path d="M1929 518 c-5 -18 -6 -38 -1 -34 7 8 12 36 6 36 -2 0 -4 -1 -5 -2z"/>
<path d="M4214 495 c-18 -15 -18 -15 0 -8 13 4 17 3 12 -5 -5 -8 -1 -10 11 -5
15 5 16 4 7 -8 -6 -8 -11 -22 -11 -31 0 -13 4 -15 19 -7 22 12 24 21 3 13 -19
-8 -19 0 0 20 13 13 13 15 -5 21 -11 4 -18 11 -15 16 9 13 2 11 -21 -6z"/>
<path d="M4133 475 c0 -6 8 -12 17 -12 9 -1 17 4 17 11 0 6 -8 12 -17 12 -9 0
-17 -5 -17 -11z"/>
<path d="M4115 440 c-18 -8 -18 -9 -2 -9 10 -1 15 -5 12 -11 -4 -6 1 -7 12 -3
32 11 35 15 22 24 -16 10 -18 10 -44 -1z"/>
<path d="M4054 429 c-4 -7 -1 -10 7 -7 8 3 23 -2 33 -11 18 -15 18 -15 5 7
-15 24 -34 29 -45 11z"/>
<path d="M4195 430 c-3 -6 1 -7 9 -4 18 7 21 14 7 14 -6 0 -13 -4 -16 -10z"/>
<path d="M4511 431 c-9 -6 -10 -11 -2 -15 13 -8 31 1 31 15 0 11 -11 11 -29 0z"/>
<path d="M4254 415 c-18 -15 -18 -15 0 -8 14 5 17 3 11 -6 -6 -10 -3 -11 14
-1 12 6 19 15 16 21 -8 13 -18 11 -41 -6z"/>
<path d="M4536 411 c-3 -4 -4 -17 -1 -29 4 -21 -19 -37 -37 -25 -7 3 -8 1 -4
-5 4 -7 1 -12 -6 -12 -8 -1 -4 -8 9 -19 20 -17 21 -20 6 -25 -9 -4 -13 -9 -10
-12 3 -3 17 2 30 11 19 12 24 23 21 41 -3 15 0 24 8 24 9 0 8 3 -2 10 -8 5
-10 10 -5 10 6 0 11 9 11 20 0 21 -11 27 -20 11z m-6 -77 c0 -8 -19 -13 -24
-6 -3 5 1 9 9 9 8 0 15 -2 15 -3z"/>
<path d="M4313 379 c-1 -10 3 -22 9 -25 7 -5 8 -2 3 6 -4 7 -2 15 5 20 9 5 8
8 -2 13 -9 3 -14 -2 -15 -14z"/>
<path d="M3167 323 c-4 -3 -7 -78 -7 -165 l0 -158 45 0 45 0 0 45 c0 43 -14
76 -49 118 -8 9 -17 13 -20 8 -3 -5 -5 29 -4 75 2 85 1 89 -10 77z"/>
<path d="M4876 322 c-4 -7 -4 -12 1 -12 4 0 2 -4 -6 -9 -11 -7 -9 -12 10 -22
33 -18 46 -19 46 -3 0 7 -4 11 -9 8 -4 -3 -8 4 -8 16 0 12 -4 19 -9 16 -5 -4
-11 -1 -13 6 -3 9 -6 9 -12 0z"/>
<path d="M4230 300 c-9 -6 -10 -10 -3 -10 6 0 15 5 18 10 8 12 4 12 -15 0z"/>
<path d="M4295 290 c-16 -11 -24 -21 -17 -21 31 -4 37 -3 37 6 0 6 4 16 8 23
11 16 7 15 -28 -8z"/>
<path d="M4169 263 c-13 -16 -12 -17 4 -4 9 8 21 11 24 7 4 -4 1 -11 -6 -15
-10 -6 -4 -12 22 -22 20 -7 33 -17 30 -22 -3 -5 4 -4 16 2 24 13 28 23 6 15
-8 -4 -15 -1 -15 4 0 6 8 12 18 14 14 3 13 5 -5 10 -13 3 -21 2 -20 -4 1 -6
-3 -12 -10 -15 -8 -3 -10 5 -7 24 3 19 1 23 -5 14 -6 -9 -11 -10 -15 -2 -10
16 -21 14 -37 -6z"/>
<path d="M4103 215 c0 -8 4 -12 9 -9 5 3 6 10 3 15 -9 13 -12 11 -12 -6z"/>
<path d="M4139 217 c6 -8 7 -18 3 -22 -4 -5 -1 -5 6 -1 10 6 10 11 1 22 -6 8
-14 14 -16 14 -3 0 0 -6 6 -13z"/>
<path d="M4432 205 c-17 -9 -20 -14 -10 -19 10 -4 9 -8 -5 -18 -10 -7 -26 -19
-35 -26 -16 -11 -16 -12 1 -6 13 5 16 2 11 -10 -3 -9 -10 -14 -14 -11 -5 3
-12 0 -16 -7 -4 -7 -4 -10 1 -6 11 10 35 -10 31 -25 -1 -7 -1 -9 1 -5 2 4 11
4 19 1 11 -4 12 -8 4 -13 -8 -5 -8 -9 3 -13 16 -6 18 28 3 52 -7 11 -5 13 8 8
11 -5 15 -3 10 5 -5 8 -2 9 10 5 23 -9 43 3 25 14 -10 6 -11 9 -1 9 18 0 15
37 -4 44 -24 9 -31 7 -11 -5 9 -5 17 -14 17 -20 0 -5 -10 -1 -22 11 -21 20
-21 20 -2 35 23 18 8 18 -24 0z m34 -68 c1 -9 -2 -15 -6 -12 -5 3 -20 0 -34
-6 -24 -11 -24 -13 -8 -25 9 -7 12 -14 7 -14 -17 0 -34 21 -28 36 3 8 8 12 12
10 3 -2 12 3 20 11 12 13 11 14 -10 8 -19 -5 -21 -4 -9 4 21 16 53 9 56 -12z"/>
<path d="M4103 178 c19 -18 43 -15 31 3 -3 5 -10 7 -15 3 -5 -3 -16 -2 -22 3
-7 4 -4 0 6 -9z"/>
<path d="M4189 173 c-13 -16 -12 -17 3 -5 9 8 23 10 29 6 8 -4 9 -3 5 4 -10
17 -21 15 -37 -5z"/>
<path d="M4916 155 c-11 -8 -20 -25 -22 -37 -1 -13 -3 -27 -3 -31 -1 -5 -7 -5
-13 -1 -10 6 -10 5 -1 -8 7 -8 10 -17 7 -20 -2 -3 -7 -17 -9 -30 -3 -17 0 -25
10 -25 8 0 11 5 8 11 -3 6 0 5 8 -1 7 -7 22 -13 34 -13 16 0 17 2 5 10 -13 9
-13 10 1 10 8 0 20 -5 27 -12 19 -19 27 0 8 21 -11 12 -15 25 -10 33 4 7 3 10
-1 5 -5 -4 -17 0 -27 10 -23 20 -24 6 -1 -19 9 -11 11 -18 5 -18 -7 0 -12 6
-12 13 0 9 -3 8 -9 -2 -12 -19 -21 8 -10 31 6 10 5 19 -1 23 -5 3 -10 11 -10
17 0 6 10 -1 21 -16 12 -15 24 -25 27 -22 3 3 -3 15 -12 25 -17 19 -17 20 3
30 13 8 22 8 26 1 4 -6 3 -10 -2 -9 -20 3 -34 -2 -28 -11 4 -6 10 -8 15 -5 4
3 14 -3 21 -12 10 -12 10 -14 2 -9 -18 10 -16 -9 2 -24 12 -10 15 -10 16 1 1
8 2 21 3 29 1 14 -42 70 -53 70 -3 0 -15 -7 -25 -15z"/>
<path d="M3670 102 c0 -11 -4 -22 -9 -24 -4 -1 -11 -20 -15 -41 l-7 -37 46 0
c49 0 53 5 31 36 -8 11 -16 33 -18 49 -3 33 -28 47 -28 17z"/>
<path d="M4165 111 c-3 -5 -2 -12 3 -15 5 -3 9 1 9 9 0 17 -3 19 -12 6z"/>
<path d="M4330 80 c-13 -9 -13 -10 0 -10 13 0 13 -1 0 -11 -12 -8 -12 -10 -1
-7 8 2 15 12 17 21 3 20 3 19 -16 7z"/>
<path d="M1944 69 c-2 -4 0 -10 6 -14 6 -4 8 -11 5 -16 -4 -5 -1 -9 4 -9 6 0
11 3 12 8 0 4 2 14 4 23 3 16 -22 22 -31 8z"/>
<path d="M4169 63 c-10 -11 -10 -14 -1 -9 7 4 12 2 12 -5 0 -7 3 -9 7 -6 3 4
14 0 24 -9 16 -14 17 -14 15 3 -2 10 -8 19 -14 19 -7 1 -18 2 -24 3 -9 1 -8 4
2 11 8 5 10 10 4 10 -6 0 -18 -8 -25 -17z"/>
<path d="M4800 76 c0 -2 6 -9 14 -15 11 -9 16 -9 22 0 4 8 3 9 -4 5 -7 -4 -12
-2 -12 3 0 6 -4 11 -10 11 -5 0 -10 -2 -10 -4z"/>
<path d="M4466 53 c9 -6 23 -9 32 -6 14 4 15 3 2 -5 -8 -6 -18 -8 -22 -6 -4 3
-16 0 -25 -5 -14 -8 -15 -10 -3 -11 13 0 13 -1 0 -10 -12 -7 -10 -9 7 -7 16 1
19 4 12 14 -8 9 -5 11 9 10 12 0 18 -6 15 -14 -3 -7 -1 -13 4 -13 5 0 10 6 11
13 0 6 3 21 5 32 4 17 0 20 -29 20 -29 0 -32 -2 -18 -12z"/>
<path d="M4345 38 c-11 -13 -13 -17 -5 -10 20 18 29 15 25 -8 -4 -22 9 -27 22
-7 12 19 12 38 1 31 -6 -4 -13 -1 -17 5 -5 8 -14 4 -26 -11z"/>
<path d="M4136 42 c-3 -5 1 -9 9 -9 8 0 12 4 9 9 -3 4 -7 8 -9 8 -2 0 -6 -4
-9 -8z"/>
<path d="M4252 33 c-10 -4 -9 -8 5 -19 10 -7 23 -13 28 -13 6 0 2 4 -8 10 -9
6 -15 14 -12 20 7 10 6 10 -13 2z"/>
<path d="M4284 28 c-4 -7 -3 -10 1 -5 5 4 17 0 27 -10 10 -9 20 -14 22 -12 2
2 -6 12 -19 22 -18 13 -25 14 -31 5z"/>
<path d="M4533 25 c-17 -13 -17 -14 0 -20 20 -8 47 0 47 14 0 16 -28 20 -47 6z
m31 -3 c2 -4 -5 -9 -17 -9 -17 -2 -19 0 -7 7 18 12 18 12 24 2z"/>
<path d="M4130 10 c0 -5 5 -10 11 -10 5 0 7 5 4 10 -3 6 -8 10 -11 10 -2 0 -4
-4 -4 -10z"/>
<path d="M4410 9 c0 -5 5 -7 10 -4 6 3 10 8 10 11 0 2 -4 4 -10 4 -5 0 -10 -5
-10 -11z"/>
</g>
</svg>
